<svg class="main-svg" xmlns="http://www.w3.org/2000/svg" xmlns:xlink="http://www.w3.org/1999/xlink" width="400" height="350" style="" viewBox="0 0 400 350"><rect x="0" y="0" width="400" height="350" style="fill: rgb(255, 255, 255); fill-opacity: 1;"/><defs id="defs-f77be5"><g class="clips"><clipPath id="clipf77be5geo"><rect x="0.9959914467718818" y="39.499999999999986" width="398.00801710645624" height="311"/></clipPath></g><g class="gradients"/><g class="patterns"/></defs><g class="bglayer"/><g class="layer-below"><g class="imagelayer"/><g class="shapelayer"/></g><g class="cartesianlayer"/><g class="polarlayer"/><g class="smithlayer"/><g class="ternarylayer"/><g class="geolayer"><g class="geo geo" clip-path="url(#clipf77be5geo)"><g class="layer bg"><rect x="0.9959914467718818" y="39.499999999999986" width="398.00801710645624" height="311" style="pointer-events: all; fill: rgb(255, 255, 255); fill-opacity: 1;"/></g><g class="layer ocean"><path d="M143.87481005956738,236.59259742667356L152.45142203490065,237.227902017439L162.2986431917646,234.2102052113033L173.7341258255421,231.03368225747622L189.61674059467762,230.23955151901933L198.19335257001086,234.52785750668605L204.22874618228263,234.84550980206873L215.66422881606013,240.0867726758834L214.0759673391464,242.15151259587097L218.52309947450442,245.48686169738951L224.2408407913934,251.8399076050437L223.92318849601037,256.6046920357844L230.91153899442986,260.2576934326855L234.08806194825712,253.1105167865745L239.80580326514587,250.0928199804388L246.79415376356536,242.6279910389451L247.42945835433073,249.13986309429063L244.2529354005039,253.42816908195718L242.66467392359039,258.51060580808064L238.21754178823235,263.4342163865126L246.1588491728,261.8459549095991L250.28832901277522,255.8105612973276L252.51189508045434,262.3224333526731L249.65302442200985,266.6107393403397L258.2296363973431,267.5636962264879L262.35911623731806,271.216697623389L264.5826823049972,275.66382975874694L266.17094378191075,282.3345279617839L271.8886850987995,287.7346169832899L280.46529707413276,290.434661494043L285.54773380025614,291.06996608480847L290.3125182309967,292.3405752663392L297.936173320182,294.7229674817096L305.87748070474987,288.3699215740554L310.6422651354902,286.78166009714187L309.05400365857673,291.38761838019116L314.4540926800829,292.81705370941336L321.76009547388537,296.78770740169716L327.1601844953914,292.9758798571047L331.28966433536635,289.64053075558616L339.54862401531705,285.98752935868504L349.395845172181,285.66987706330235L354.4782818983044,282.49335410947526L353.842977307539,279.7933095987222L355.11358648906975,273.7579159864507L357.33715255674883,267.08721778341385L360.8313278059585,262.6400856480558L363.37254616902,255.01643055887084L366.23141682746444,250.72812457120418L369.4079397812917,243.89860022047597L376.0786379843289,239.61029423280937L379.8904655289211,231.51016070055024L381.7963793012176,225.157114792896L381.47872700583457,220.0746780667727L383.7022930735137,212.29219682989626L385.29055455042726,208.16271698992105L385.92585914119263,200.38023575304462L381.7963793012176,192.91540681155098L382.43168389198297,187.35649164235355L382.11403159659994,182.4328810639215L379.5728132335385,175.2857044178105L372.584462735119,168.13852777169953L368.45498289514336,164.8031786701811L362.41958928287227,159.403089648675L360.8313278059585,150.03234693488503L358.6077617382796,151.30295611641588L355.11358648906975,147.49112857182342L351.61941123986014,149.555868491811L348.12523599065025,140.02629963032967L343.0427992645269,134.4673844611322L344.3134084460576,132.24381839345332L338.27801483378585,128.43199084886075L332.24262122151475,124.30251100888552L322.39540006465074,119.69655272583626L319.5365294062065,113.66115911356479L320.48948629235423,109.05520083051542L318.2659202246751,101.59037188902175L316.0423541569967,100.47858885518224L314.4540926800829,96.03145671982432L312.54817890778634,88.56662777833068L313.50113579393474,84.59597408604677L309.37165595395953,81.10179883683699L306.51278529551524,77.44879743993579L300.7950439786265,80.78414654145419L297.618521024799,73.79579604303457L297.936173320182,70.6192730892075L297.30086872941666,65.53683636308422L294.12434577558935,61.08970422772617L293.806693480207,57.43670283082507L291.5831274125279,56.324919796985554L290.94782282176254,50.76600462778812L288.4066044587006,46.47769864012153L285.23008150487374,49.81304774163995L284.91242920949077,52.35426610470165L283.3241677325772,57.11905053544238L281.10060166489814,61.88383496618299L282.3712108464293,64.74270562462738L280.78294936951573,66.64861939692359L279.51234018798505,73.16049145226921L280.46529707413276,78.24292817839262L279.8299924833674,80.78414654145419L281.10060166489814,85.0724525291208L278.55938330183665,92.06080302754043L277.2887741203059,96.98441360597249L275.70051264339236,100.95506729825641L273.79459887109624,105.56102558130564L268.07685755420755,108.57872238744139L259.50024557887383,105.56102558130564L258.2296363973431,102.86098107055261L253.78250426198508,100.63741500287358L251.2412858989236,100.63741500287358L244.88823999126927,95.39615212905895L240.1234555605289,92.3784553229232L233.45275735749175,89.51958466447869L226.46440685907228,84.75480023373811L225.8291022683069,82.21358187067639L229.00562522213374,77.9252758830098L231.54684358519566,73.47814374765188L230.59388669904752,69.98396849844214L233.45275735749175,69.66631620305932L236.94693260670164,66.01331480615823L239.17049867438053,61.40735652310896L235.35867112978787,56.96022438775091L233.13510506210898,58.707312012355914L229.95858210828214,57.9131812738991L224.55849308677574,60.4543996369608L219.15840406526976,57.754355126207756L216.61718570220785,58.54848586466457L209.311182908406,56.324919796985554L204.54639847766498,52.67191840008434L198.82865716077623,50.60717848009678L194.06387273003565,51.877787661627636L200.41691863769,54.736658320072024L200.73457093307277,59.18379045542994L193.11091584388748,60.93087808003483L188.66378370852948,59.819095046195315L183.2636946870235,62.9956180000225L179.45186714243087,68.0780547261458L181.0401286193446,70.30162079382482L176.91064877936938,72.52518686150371L172.7811689393944,79.6723635076148L174.68708271169027,84.43714793835542L168.96934139480152,83.6430171998986L163.56925237329534,83.48419105220725L158.48681564717242,78.40175432608396L152.13376973951762,74.27227448610873L147.68663760416027,75.54288366763957L143.87481005956738,76.8134928491703L143.87481005956738,78.87823276915799L139.7453302195924,77.9252758830098L139.7453302195924,80.4664942460715L135.29819808423437,81.8959295752937L133.07463201655526,85.3901048245036L128.3098475858149,89.67841081217017L127.35689069966651,96.50793516289835L123.54506315507385,94.44319524291078L120.68619249662936,98.73150123057735L123.86271545045665,103.01980721824395L120.050887905864,104.76689484284881L116.2390603612718,97.14323975366383L110.20366674900025,104.60806869515747L109.88601445361724,109.37285312589822L109.56836215823489,112.86702837510799L104.16827313672847,117.47298665815723L101.94470706905003,122.07894494120663L97.179922638309,126.0495986334904L87.96800607221039,128.5908169965521L83.20322164147002,128.43199084886075L80.66200327840788,129.22612158731758L79.39139409687715,131.13203535961384L73.99130507537141,132.08499224576198L67.00295457695148,135.42034134728038L64.77938850927237,134.30855831344087L60.64990866929736,134.94386290420636L53.97921046626067,138.2792120057248L49.532078330902664,142.09103955031733L42.54372783248317,144.94991020876174L38.7319002878904,150.9853038210332L38.09659569712505,144.31460561799625L34.60242044791531,150.6676515256505L35.55537733406314,155.75008825177378L34.28476815253239,160.19722038713186L32.37885438023628,162.42078645481075L31.42589749408802,167.50322318093416L33.33181126638411,170.20326769168722L34.28476815253239,172.90331220244028L38.7319002878904,179.89166270085988L38.7319002878904,184.33879483621774L36.19068192482848,181.00344573469928L31.743549789470933,178.4622273716377L34.920072743297766,186.56236090389677L30.790592903322647,182.7505333593042L32.06120208485339,186.56236090389677L37.14363881097677,193.55071140231635L38.41424799250751,200.38023575304462L42.226075537100144,204.0332371499458L42.54372783248317,206.5744555130075L46.037903081692804,212.29219682989626L45.720250786310004,217.37463355601957L46.99085996784075,222.29824413445166L51.75564439858178,231.3513345528589L52.7086012847295,236.43377127898222L51.43799210319875,242.6279910389451L51.75564439858178,245.8045139927722L50.48503521705038,247.86925391275977L46.037903081692804,248.9810369465993L45.720250786310004,254.0634736727226L50.48503521705038,255.8105612973276L60.01460407853199,261.36947646652504L65.73234539542074,261.36947646652504L72.40304359845766,261.68712876190773L76.53252343843289,258.98708425115467L80.97965557379091,256.44586588809307L83.52087393685237,256.76351818347575L88.92096295835877,252.15755990042638L94.95635657062988,251.68108145735235L101.30940247828399,250.72812457120418L108.93305756746952,252.31638604811778L114.65079888435827,251.522255309661L121.95680167816055,251.3634291619696L125.13332463198738,247.86925391275977L127.03923840428416,243.1044694820192L134.66289349346903,241.19855570972285ZM334.1485349938108,312.35266987545003L327.1601844953914,314.0997575000548L322.39540006465074,315.3703666815858L313.81878808931754,312.35266987545003L308.1010467724288,311.5585391369932L307.783394477046,315.5291928292771L312.86583120316936,323.15284791846216L314.1364403847001,329.0294153830423L319.5365294062065,336.65307047222734L324.93661842771223,336.8118966199187L326.84253220000835,337.2883750629927L332.87792581228007,331.2529814507212L336.0544487661074,333.6353736660916L337.0074056522551,326.4881970199806L339.8662763106996,323.47050021384484L339.23097171993425,312.9879744662154ZM333.9010709028855,39.999999999999986L336.0544487661074,41.71291420938094L344.948713036823,43.14234953860313L352.57236812600786,44.09530642475117L354.79593419368695,46.31887249243019L360.5136755105757,45.6835679016647L361.46663239672387,43.14234953860313L353.2691988177592,39.999999999999986L398.5040085532281,39.999999999999986L398.5040085532281,350L1.4959914467718818,350L1.4959914467718818,39.999999999999986L87.05545625889377,39.999999999999986L92.4151382075684,42.824697243220314L92.4151382075684,42.824697243220314L95.90931345677826,42.665871095528985L96.54461804754362,40.283478880158725L96.21111348265102,39.999999999999986L120.92977622135834,39.999999999999986L120.92977622135834,39.999999999999986L120.36854020124701,42.665871095528985L121.32149708739519,43.777654129368486L128.94515217658028,41.87174035707227L130.5495010540708,39.999999999999986L333.9010709028855,39.999999999999986Z" style="stroke: none; fill: rgb(144, 195, 245); fill-opacity: 1;"/></g><g class="layer land"><path d="M334.1485349938108,312.35266987545003L339.23097171993425,312.9879744662154L339.8662763106996,323.47050021384484L337.0074056522551,326.4881970199806L336.0544487661074,333.6353736660916L332.87792581228007,331.2529814507212L326.84253220000835,337.2883750629927L324.93661842771223,336.8118966199187L319.5365294062065,336.65307047222734L314.1364403847001,329.0294153830423L312.86583120316936,323.15284791846216L307.783394477046,315.5291928292771L308.1010467724288,311.5585391369932L313.81878808931754,312.35266987545003L322.39540006465074,315.3703666815858L327.1601844953914,314.0997575000548ZM143.87481005956738,236.59259742667356L134.66289349346903,241.19855570972285L127.03923840428416,243.1044694820192L125.13332463198738,247.86925391275977L121.95680167816055,251.3634291619696L114.65079888435827,251.522255309661L108.93305756746952,252.31638604811778L101.30940247828399,250.72812457120418L94.95635657062988,251.68108145735235L88.92096295835877,252.15755990042638L83.52087393685237,256.76351818347575L80.97965557379091,256.44586588809307L76.53252343843289,258.98708425115467L72.40304359845766,261.68712876190773L65.73234539542074,261.36947646652504L60.01460407853199,261.36947646652504L50.48503521705038,255.8105612973276L45.720250786310004,254.0634736727226L46.037903081692804,248.9810369465993L50.48503521705038,247.86925391275977L51.75564439858178,245.8045139927722L51.43799210319875,242.6279910389451L52.7086012847295,236.43377127898222L51.75564439858178,231.3513345528589L46.99085996784075,222.29824413445166L45.720250786310004,217.37463355601957L46.037903081692804,212.29219682989626L42.54372783248317,206.5744555130075L42.226075537100144,204.0332371499458L38.41424799250751,200.38023575304462L37.14363881097677,193.55071140231635L32.06120208485339,186.56236090389677L30.790592903322647,182.7505333593042L34.920072743297766,186.56236090389677L31.743549789470933,178.4622273716377L36.19068192482848,181.00344573469928L38.7319002878904,184.33879483621774L38.7319002878904,179.89166270085988L34.28476815253239,172.90331220244028L33.33181126638411,170.20326769168722L31.42589749408802,167.50322318093416L32.37885438023628,162.42078645481075L34.28476815253239,160.19722038713186L35.55537733406314,155.75008825177378L34.60242044791531,150.6676515256505L38.09659569712505,144.31460561799625L38.7319002878904,150.9853038210332L42.54372783248317,144.94991020876174L49.532078330902664,142.09103955031733L53.97921046626067,138.2792120057248L60.64990866929736,134.94386290420636L64.77938850927237,134.30855831344087L67.00295457695148,135.42034134728038L73.99130507537141,132.08499224576198L79.39139409687715,131.13203535961384L80.66200327840788,129.22612158731758L83.20322164147002,128.43199084886075L87.96800607221039,128.5908169965521L97.179922638309,126.0495986334904L101.94470706905003,122.07894494120663L104.16827313672847,117.47298665815723L109.56836215823489,112.86702837510799L109.88601445361724,109.37285312589822L110.20366674900025,104.60806869515747L116.2390603612718,97.14323975366383L120.050887905864,104.76689484284881L123.86271545045665,103.01980721824395L120.68619249662936,98.73150123057735L123.54506315507385,94.44319524291078L127.35689069966651,96.50793516289835L128.3098475858149,89.67841081217017L133.07463201655526,85.3901048245036L135.29819808423437,81.8959295752937L139.7453302195924,80.4664942460715L139.7453302195924,77.9252758830098L143.87481005956738,78.87823276915799L143.87481005956738,76.8134928491703L147.68663760416027,75.54288366763957L152.13376973951762,74.27227448610873L158.48681564717242,78.40175432608396L163.56925237329534,83.48419105220725L168.96934139480152,83.6430171998986L174.68708271169027,84.43714793835542L172.7811689393944,79.6723635076148L176.91064877936938,72.52518686150371L181.0401286193446,70.30162079382482L179.45186714243087,68.0780547261458L183.2636946870235,62.9956180000225L188.66378370852948,59.819095046195315L193.11091584388748,60.93087808003483L200.73457093307277,59.18379045542994L200.41691863769,54.736658320072024L194.06387273003565,51.877787661627636L198.82865716077623,50.60717848009678L204.54639847766498,52.67191840008434L209.311182908406,56.324919796985554L216.61718570220785,58.54848586466457L219.15840406526976,57.754355126207756L224.55849308677574,60.4543996369608L229.95858210828214,57.9131812738991L233.13510506210898,58.707312012355914L235.35867112978787,56.96022438775091L239.17049867438053,61.40735652310896L236.94693260670164,66.01331480615823L233.45275735749175,69.66631620305932L230.59388669904752,69.98396849844214L231.54684358519566,73.47814374765188L229.00562522213374,77.9252758830098L225.8291022683069,82.21358187067639L226.46440685907228,84.75480023373811L233.45275735749175,89.51958466447869L240.1234555605289,92.3784553229232L244.88823999126927,95.39615212905895L251.2412858989236,100.63741500287358L253.78250426198508,100.63741500287358L258.2296363973431,102.86098107055261L259.50024557887383,105.56102558130564L268.07685755420755,108.57872238744139L273.79459887109624,105.56102558130564L275.70051264339236,100.95506729825641L277.2887741203059,96.98441360597249L278.55938330183665,92.06080302754043L281.10060166489814,85.0724525291208L279.8299924833674,80.78414654145419L280.46529707413276,78.24292817839262L279.51234018798505,73.16049145226921L280.78294936951573,66.64861939692359L282.3712108464293,64.74270562462738L281.10060166489814,61.88383496618299L283.3241677325772,57.11905053544238L284.91242920949077,52.35426610470165L285.23008150487374,49.81304774163995L288.4066044587006,46.47769864012153L290.94782282176254,50.76600462778812L291.5831274125279,56.324919796985554L293.806693480207,57.43670283082507L294.12434577558935,61.08970422772617L297.30086872941666,65.53683636308422L297.936173320182,70.6192730892075L297.618521024799,73.79579604303457L300.7950439786265,80.78414654145419L306.51278529551524,77.44879743993579L309.37165595395953,81.10179883683699L313.50113579393474,84.59597408604677L312.54817890778634,88.56662777833068L314.4540926800829,96.03145671982432L316.0423541569967,100.47858885518224L318.2659202246751,101.59037188902175L320.48948629235423,109.05520083051542L319.5365294062065,113.66115911356479L322.39540006465074,119.69655272583626L332.24262122151475,124.30251100888552L338.27801483378585,128.43199084886075L344.3134084460576,132.24381839345332L343.0427992645269,134.4673844611322L348.12523599065025,140.02629963032967L351.61941123986014,149.555868491811L355.11358648906975,147.49112857182342L358.6077617382796,151.30295611641588L360.8313278059585,150.03234693488503L362.41958928287227,159.403089648675L368.45498289514336,164.8031786701811L372.584462735119,168.13852777169953L379.5728132335385,175.2857044178105L382.11403159659994,182.4328810639215L382.43168389198297,187.35649164235355L381.7963793012176,192.91540681155098L385.92585914119263,200.38023575304462L385.29055455042726,208.16271698992105L383.7022930735137,212.29219682989626L381.47872700583457,220.0746780667727L381.7963793012176,225.157114792896L379.8904655289211,231.51016070055024L376.0786379843289,239.61029423280937L369.4079397812917,243.89860022047597L366.23141682746444,250.72812457120418L363.37254616902,255.01643055887084L360.8313278059585,262.6400856480558L357.33715255674883,267.08721778341385L355.11358648906975,273.7579159864507L353.842977307539,279.7933095987222L354.4782818983044,282.49335410947526L349.395845172181,285.66987706330235L339.54862401531705,285.98752935868504L331.28966433536635,289.64053075558616L327.1601844953914,292.9758798571047L321.76009547388537,296.78770740169716L314.4540926800829,292.81705370941336L309.05400365857673,291.38761838019116L310.6422651354902,286.78166009714187L305.87748070474987,288.3699215740554L297.936173320182,294.7229674817096L290.3125182309967,292.3405752663392L285.54773380025614,291.06996608480847L280.46529707413276,290.434661494043L271.8886850987995,287.7346169832899L266.17094378191075,282.3345279617839L264.5826823049972,275.66382975874694L262.35911623731806,271.216697623389L258.2296363973431,267.5636962264879L249.65302442200985,266.6107393403397L252.51189508045434,262.3224333526731L250.28832901277522,255.8105612973276L246.1588491728,261.8459549095991L238.21754178823235,263.4342163865126L242.66467392359039,258.51060580808064L244.2529354005039,253.42816908195718L247.42945835433073,249.13986309429063L246.79415376356536,242.6279910389451L239.80580326514587,250.0928199804388L234.08806194825712,253.1105167865745L230.91153899442986,260.2576934326855L223.92318849601037,256.6046920357844L224.2408407913934,251.8399076050437L218.52309947450442,245.48686169738951L214.0759673391464,242.15151259587097L215.66422881606013,240.0867726758834L204.22874618228263,234.84550980206873L198.19335257001086,234.52785750668605L189.61674059467762,230.23955151901933L173.7341258255421,231.03368225747622L162.2986431917646,234.2102052113033L152.45142203490065,237.227902017439ZM96.21111348265102,39.999999999999986L96.54461804754362,40.283478880158725L95.90931345677826,42.665871095528985L92.4151382075684,42.824697243220314L92.4151382075684,42.824697243220314L87.05545625889377,39.999999999999986L96.21111348265102,39.999999999999986ZM130.5495010540708,39.999999999999986L128.94515217658028,41.87174035707227L121.32149708739519,43.777654129368486L120.36854020124701,42.665871095528985L120.92977622135834,39.999999999999986L130.5495010540708,39.999999999999986ZM353.2691988177592,39.999999999999986L361.46663239672387,43.14234953860313L360.5136755105757,45.6835679016647L354.79593419368695,46.31887249243019L352.57236812600786,44.09530642475117L344.948713036823,43.14234953860313L336.0544487661074,41.71291420938094L333.9010709028855,39.999999999999986L353.2691988177592,39.999999999999986Z" style="stroke: none; fill: rgb(229, 236, 246); fill-opacity: 1;"/></g><g class="layer lakes"><path style="stroke: none; fill: rgb(255, 255, 255); fill-opacity: 1;"/></g><g class="layer countries"><path d="M353.2691988177592,39.999999999999986L361.46663239672387,43.14234953860313L360.5136755105757,45.6835679016647L354.79593419368695,46.31887249243019L352.57236812600786,44.09530642475117L344.948713036823,43.14234953860313L336.0544487661074,41.71291420938094L333.9010709028855,39.999999999999986L353.2691988177592,39.999999999999986ZM130.5495010540708,39.999999999999986L128.94515217658028,41.87174035707227L121.32149708739519,43.777654129368486L120.36854020124701,42.665871095528985L120.92977622135834,39.999999999999986L130.5495010540708,39.999999999999986ZM96.21111348265102,39.999999999999986L96.54461804754362,40.283478880158725L95.90931345677826,42.665871095528985L92.4151382075684,42.824697243220314L92.4151382075684,42.824697243220314L87.05545625889377,39.999999999999986L96.21111348265102,39.999999999999986ZM334.1485349938108,312.35266987545003L339.23097171993425,312.9879744662154L339.8662763106996,323.47050021384484L337.0074056522551,326.4881970199806L336.0544487661074,333.6353736660916L332.87792581228007,331.2529814507212L326.84253220000835,337.2883750629927L324.93661842771223,336.8118966199187L319.5365294062065,336.65307047222734L314.1364403847001,329.0294153830423L312.86583120316936,323.15284791846216L307.783394477046,315.5291928292771L308.1010467724288,311.5585391369932L313.81878808931754,312.35266987545003L322.39540006465074,315.3703666815858L327.1601844953914,314.0997575000548ZM143.87481005956738,236.59259742667356L134.66289349346903,241.19855570972285L127.03923840428416,243.1044694820192L125.13332463198738,247.86925391275977L121.95680167816055,251.3634291619696L114.65079888435827,251.522255309661L108.93305756746952,252.31638604811778L101.30940247828399,250.72812457120418L94.95635657062988,251.68108145735235L88.92096295835877,252.15755990042638L83.52087393685237,256.76351818347575L80.97965557379091,256.44586588809307L76.53252343843289,258.98708425115467L72.40304359845766,261.68712876190773L65.73234539542074,261.36947646652504L60.01460407853199,261.36947646652504L50.48503521705038,255.8105612973276L45.720250786310004,254.0634736727226L46.037903081692804,248.9810369465993L50.48503521705038,247.86925391275977L51.75564439858178,245.8045139927722L51.43799210319875,242.6279910389451L52.7086012847295,236.43377127898222L51.75564439858178,231.3513345528589L46.99085996784075,222.29824413445166L45.720250786310004,217.37463355601957L46.037903081692804,212.29219682989626L42.54372783248317,206.5744555130075L42.226075537100144,204.0332371499458L38.41424799250751,200.38023575304462L37.14363881097677,193.55071140231635L32.06120208485339,186.56236090389677L30.790592903322647,182.7505333593042L34.920072743297766,186.56236090389677L31.743549789470933,178.4622273716377L36.19068192482848,181.00344573469928L38.7319002878904,184.33879483621774L38.7319002878904,179.89166270085988L34.28476815253239,172.90331220244028L33.33181126638411,170.20326769168722L31.42589749408802,167.50322318093416L32.37885438023628,162.42078645481075L34.28476815253239,160.19722038713186L35.55537733406314,155.75008825177378L34.60242044791531,150.6676515256505L38.09659569712505,144.31460561799625L38.7319002878904,150.9853038210332L42.54372783248317,144.94991020876174L49.532078330902664,142.09103955031733L53.97921046626067,138.2792120057248L60.64990866929736,134.94386290420636L64.77938850927237,134.30855831344087L67.00295457695148,135.42034134728038L73.99130507537141,132.08499224576198L79.39139409687715,131.13203535961384L80.66200327840788,129.22612158731758L83.20322164147002,128.43199084886075L87.96800607221039,128.5908169965521L97.179922638309,126.0495986334904L101.94470706905003,122.07894494120663L104.16827313672847,117.47298665815723L109.56836215823489,112.86702837510799L109.88601445361724,109.37285312589822L110.20366674900025,104.60806869515747L116.2390603612718,97.14323975366383L120.050887905864,104.76689484284881L123.86271545045665,103.01980721824395L120.68619249662936,98.73150123057735L123.54506315507385,94.44319524291078L127.35689069966651,96.50793516289835L128.3098475858149,89.67841081217017L133.07463201655526,85.3901048245036L135.29819808423437,81.8959295752937L139.7453302195924,80.4664942460715L139.7453302195924,77.9252758830098L143.87481005956738,78.87823276915799L143.87481005956738,76.8134928491703L147.68663760416027,75.54288366763957L152.13376973951762,74.27227448610873L158.48681564717242,78.40175432608396L163.56925237329534,83.48419105220725L168.96934139480152,83.6430171998986L174.68708271169027,84.43714793835542L172.7811689393944,79.6723635076148L176.91064877936938,72.52518686150371L181.0401286193446,70.30162079382482L179.45186714243087,68.0780547261458L183.2636946870235,62.9956180000225L188.66378370852948,59.819095046195315L193.11091584388748,60.93087808003483L200.73457093307277,59.18379045542994L200.41691863769,54.736658320072024L194.06387273003565,51.877787661627636L198.82865716077623,50.60717848009678L204.54639847766498,52.67191840008434L209.311182908406,56.324919796985554L216.61718570220785,58.54848586466457L219.15840406526976,57.754355126207756L224.55849308677574,60.4543996369608L229.95858210828214,57.9131812738991L233.13510506210898,58.707312012355914L235.35867112978787,56.96022438775091L239.17049867438053,61.40735652310896L236.94693260670164,66.01331480615823L233.45275735749175,69.66631620305932L230.59388669904752,69.98396849844214L231.54684358519566,73.47814374765188L229.00562522213374,77.9252758830098L225.8291022683069,82.21358187067639L226.46440685907228,84.75480023373811L233.45275735749175,89.51958466447869L240.1234555605289,92.3784553229232L244.88823999126927,95.39615212905895L251.2412858989236,100.63741500287358L253.78250426198508,100.63741500287358L258.2296363973431,102.86098107055261L259.50024557887383,105.56102558130564L268.07685755420755,108.57872238744139L273.79459887109624,105.56102558130564L275.70051264339236,100.95506729825641L277.2887741203059,96.98441360597249L278.55938330183665,92.06080302754043L281.10060166489814,85.0724525291208L279.8299924833674,80.78414654145419L280.46529707413276,78.24292817839262L279.51234018798505,73.16049145226921L280.78294936951573,66.64861939692359L282.3712108464293,64.74270562462738L281.10060166489814,61.88383496618299L283.3241677325772,57.11905053544238L284.91242920949077,52.35426610470165L285.23008150487374,49.81304774163995L288.4066044587006,46.47769864012153L290.94782282176254,50.76600462778812L291.5831274125279,56.324919796985554L293.806693480207,57.43670283082507L294.12434577558935,61.08970422772617L297.30086872941666,65.53683636308422L297.936173320182,70.6192730892075L297.618521024799,73.79579604303457L300.7950439786265,80.78414654145419L306.51278529551524,77.44879743993579L309.37165595395953,81.10179883683699L313.50113579393474,84.59597408604677L312.54817890778634,88.56662777833068L314.4540926800829,96.03145671982432L316.0423541569967,100.47858885518224L318.2659202246751,101.59037188902175L320.48948629235423,109.05520083051542L319.5365294062065,113.66115911356479L322.39540006465074,119.69655272583626L332.24262122151475,124.30251100888552L338.27801483378585,128.43199084886075L344.3134084460576,132.24381839345332L343.0427992645269,134.4673844611322L348.12523599065025,140.02629963032967L351.61941123986014,149.555868491811L355.11358648906975,147.49112857182342L358.6077617382796,151.30295611641588L360.8313278059585,150.03234693488503L362.41958928287227,159.403089648675L368.45498289514336,164.8031786701811L372.584462735119,168.13852777169953L379.5728132335385,175.2857044178105L382.11403159659994,182.4328810639215L382.43168389198297,187.35649164235355L381.7963793012176,192.91540681155098L385.92585914119263,200.38023575304462L385.29055455042726,208.16271698992105L383.7022930735137,212.29219682989626L381.47872700583457,220.0746780667727L381.7963793012176,225.157114792896L379.8904655289211,231.51016070055024L376.0786379843289,239.61029423280937L369.4079397812917,243.89860022047597L366.23141682746444,250.72812457120418L363.37254616902,255.01643055887084L360.8313278059585,262.6400856480558L357.33715255674883,267.08721778341385L355.11358648906975,273.7579159864507L353.842977307539,279.7933095987222L354.4782818983044,282.49335410947526L349.395845172181,285.66987706330235L339.54862401531705,285.98752935868504L331.28966433536635,289.64053075558616L327.1601844953914,292.9758798571047L321.76009547388537,296.78770740169716L314.4540926800829,292.81705370941336L309.05400365857673,291.38761838019116L310.6422651354902,286.78166009714187L305.87748070474987,288.3699215740554L297.936173320182,294.7229674817096L290.3125182309967,292.3405752663392L285.54773380025614,291.06996608480847L280.46529707413276,290.434661494043L271.8886850987995,287.7346169832899L266.17094378191075,282.3345279617839L264.5826823049972,275.66382975874694L262.35911623731806,271.216697623389L258.2296363973431,267.5636962264879L249.65302442200985,266.6107393403397L252.51189508045434,262.3224333526731L250.28832901277522,255.8105612973276L246.1588491728,261.8459549095991L238.21754178823235,263.4342163865126L242.66467392359039,258.51060580808064L244.2529354005039,253.42816908195718L247.42945835433073,249.13986309429063L246.79415376356536,242.6279910389451L239.80580326514587,250.0928199804388L234.08806194825712,253.1105167865745L230.91153899442986,260.2576934326855L223.92318849601037,256.6046920357844L224.2408407913934,251.8399076050437L218.52309947450442,245.48686169738951L214.0759673391464,242.15151259587097L215.66422881606013,240.0867726758834L204.22874618228263,234.84550980206873L198.19335257001086,234.52785750668605L189.61674059467762,230.23955151901933L173.7341258255421,231.03368225747622L162.2986431917646,234.2102052113033L152.45142203490065,237.227902017439Z" style="fill: none; stroke-miterlimit: 2; stroke: rgb(68, 68, 68); stroke-opacity: 1; stroke-width: 1px;"/></g><g class="layer coastlines"><path d="M353.2691988177592,39.999999999999986L361.46663239672387,43.14234953860313L360.5136755105757,45.6835679016647L354.79593419368695,46.31887249243019L352.57236812600786,44.09530642475117L344.948713036823,43.14234953860313L336.0544487661074,41.71291420938094L333.9010709028855,39.999999999999986M334.1485349938108,312.35266987545003L339.23097171993425,312.9879744662154L339.8662763106996,323.47050021384484L337.0074056522551,326.4881970199806L336.0544487661074,333.6353736660916L332.87792581228007,331.2529814507212L326.84253220000835,337.2883750629927L324.93661842771223,336.8118966199187L319.5365294062065,336.65307047222734L314.1364403847001,329.0294153830423L312.86583120316936,323.15284791846216L307.783394477046,315.5291928292771L308.1010467724288,311.5585391369932L313.81878808931754,312.35266987545003L322.39540006465074,315.3703666815858L327.1601844953914,314.0997575000548L334.1485349938108,312.35266987545003M143.87481005956738,236.59259742667356L134.66289349346903,241.19855570972285L127.03923840428416,243.1044694820192L125.13332463198738,247.86925391275977L121.95680167816055,251.3634291619696L114.65079888435827,251.522255309661L108.93305756746952,252.31638604811778L101.30940247828399,250.72812457120418L94.95635657062988,251.68108145735235L88.92096295835877,252.15755990042638L83.52087393685237,256.76351818347575L80.97965557379091,256.44586588809307L76.53252343843289,258.98708425115467L72.40304359845766,261.68712876190773L65.73234539542074,261.36947646652504L60.01460407853199,261.36947646652504L50.48503521705038,255.8105612973276L45.720250786310004,254.0634736727226L46.037903081692804,248.9810369465993L50.48503521705038,247.86925391275977L51.75564439858178,245.8045139927722L51.43799210319875,242.6279910389451L52.7086012847295,236.43377127898222L51.75564439858178,231.3513345528589L46.99085996784075,222.29824413445166L45.720250786310004,217.37463355601957L46.037903081692804,212.29219682989626L42.54372783248317,206.5744555130075L42.226075537100144,204.0332371499458L38.41424799250751,200.38023575304462L37.14363881097677,193.55071140231635L32.06120208485339,186.56236090389677L30.790592903322647,182.7505333593042L34.920072743297766,186.56236090389677L31.743549789470933,178.4622273716377L36.19068192482848,181.00344573469928L38.7319002878904,184.33879483621774L38.7319002878904,179.89166270085988L34.28476815253239,172.90331220244028L33.33181126638411,170.20326769168722L31.42589749408802,167.50322318093416L32.37885438023628,162.42078645481075L34.28476815253239,160.19722038713186L35.55537733406314,155.75008825177378L34.60242044791531,150.6676515256505L38.09659569712505,144.31460561799625L38.7319002878904,150.9853038210332L42.54372783248317,144.94991020876174L49.532078330902664,142.09103955031733L53.97921046626067,138.2792120057248L60.64990866929736,134.94386290420636L64.77938850927237,134.30855831344087L67.00295457695148,135.42034134728038L73.99130507537141,132.08499224576198L79.39139409687715,131.13203535961384L80.66200327840788,129.22612158731758L83.20322164147002,128.43199084886075L87.96800607221039,128.5908169965521L97.179922638309,126.0495986334904L101.94470706905003,122.07894494120663L104.16827313672847,117.47298665815723L109.56836215823489,112.86702837510799L109.88601445361724,109.37285312589822L110.20366674900025,104.60806869515747L116.2390603612718,97.14323975366383L120.050887905864,104.76689484284881L123.86271545045665,103.01980721824395L120.68619249662936,98.73150123057735L123.54506315507385,94.44319524291078L127.35689069966651,96.50793516289835L128.3098475858149,89.67841081217017L133.07463201655526,85.3901048245036L135.29819808423437,81.8959295752937L139.7453302195924,80.4664942460715L139.7453302195924,77.9252758830098L143.87481005956738,78.87823276915799L143.87481005956738,76.8134928491703L147.68663760416027,75.54288366763957L152.13376973951762,74.27227448610873L158.48681564717242,78.40175432608396L163.56925237329534,83.48419105220725L168.96934139480152,83.6430171998986L174.68708271169027,84.43714793835542L172.7811689393944,79.6723635076148L176.91064877936938,72.52518686150371L181.0401286193446,70.30162079382482L179.45186714243087,68.0780547261458L183.2636946870235,62.9956180000225L188.66378370852948,59.819095046195315L193.11091584388748,60.93087808003483L200.73457093307277,59.18379045542994L200.41691863769,54.736658320072024L194.06387273003565,51.877787661627636L198.82865716077623,50.60717848009678L204.54639847766498,52.67191840008434L209.311182908406,56.324919796985554L216.61718570220785,58.54848586466457L219.15840406526976,57.754355126207756L224.55849308677574,60.4543996369608L229.95858210828214,57.9131812738991L233.13510506210898,58.707312012355914L235.35867112978787,56.96022438775091L239.17049867438053,61.40735652310896L236.94693260670164,66.01331480615823L233.45275735749175,69.66631620305932L230.59388669904752,69.98396849844214L231.54684358519566,73.47814374765188L229.00562522213374,77.9252758830098L225.8291022683069,82.21358187067639L226.46440685907228,84.75480023373811L233.45275735749175,89.51958466447869L240.1234555605289,92.3784553229232L244.88823999126927,95.39615212905895L251.2412858989236,100.63741500287358L253.78250426198508,100.63741500287358L258.2296363973431,102.86098107055261L259.50024557887383,105.56102558130564L268.07685755420755,108.57872238744139L273.79459887109624,105.56102558130564L275.70051264339236,100.95506729825641L277.2887741203059,96.98441360597249L278.55938330183665,92.06080302754043L281.10060166489814,85.0724525291208L279.8299924833674,80.78414654145419L280.46529707413276,78.24292817839262L279.51234018798505,73.16049145226921L280.78294936951573,66.64861939692359L282.3712108464293,64.74270562462738L281.10060166489814,61.88383496618299L283.3241677325772,57.11905053544238L284.91242920949077,52.35426610470165L285.23008150487374,49.81304774163995L288.4066044587006,46.47769864012153L290.94782282176254,50.76600462778812L291.5831274125279,56.324919796985554L293.806693480207,57.43670283082507L294.12434577558935,61.08970422772617L297.30086872941666,65.53683636308422L297.936173320182,70.6192730892075L297.618521024799,73.79579604303457L300.7950439786265,80.78414654145419L306.51278529551524,77.44879743993579L309.37165595395953,81.10179883683699L313.50113579393474,84.59597408604677L312.54817890778634,88.56662777833068L314.4540926800829,96.03145671982432L316.0423541569967,100.47858885518224L318.2659202246751,101.59037188902175L320.48948629235423,109.05520083051542L319.5365294062065,113.66115911356479L322.39540006465074,119.69655272583626L332.24262122151475,124.30251100888552L338.27801483378585,128.43199084886075L344.3134084460576,132.24381839345332L343.0427992645269,134.4673844611322L348.12523599065025,140.02629963032967L351.61941123986014,149.555868491811L355.11358648906975,147.49112857182342L358.6077617382796,151.30295611641588L360.8313278059585,150.03234693488503L362.41958928287227,159.403089648675L368.45498289514336,164.8031786701811L372.584462735119,168.13852777169953L379.5728132335385,175.2857044178105L382.11403159659994,182.4328810639215L382.43168389198297,187.35649164235355L381.7963793012176,192.91540681155098L385.92585914119263,200.38023575304462L385.29055455042726,208.16271698992105L383.7022930735137,212.29219682989626L381.47872700583457,220.0746780667727L381.7963793012176,225.157114792896L379.8904655289211,231.51016070055024L376.0786379843289,239.61029423280937L369.4079397812917,243.89860022047597L366.23141682746444,250.72812457120418L363.37254616902,255.01643055887084L360.8313278059585,262.6400856480558L357.33715255674883,267.08721778341385L355.11358648906975,273.7579159864507L353.842977307539,279.7933095987222L354.4782818983044,282.49335410947526L349.395845172181,285.66987706330235L339.54862401531705,285.98752935868504L331.28966433536635,289.64053075558616L327.1601844953914,292.9758798571047L321.76009547388537,296.78770740169716L314.4540926800829,292.81705370941336L309.05400365857673,291.38761838019116L310.6422651354902,286.78166009714187L305.87748070474987,288.3699215740554L297.936173320182,294.7229674817096L290.3125182309967,292.3405752663392L285.54773380025614,291.06996608480847L280.46529707413276,290.434661494043L271.8886850987995,287.7346169832899L266.17094378191075,282.3345279617839L264.5826823049972,275.66382975874694L262.35911623731806,271.216697623389L258.2296363973431,267.5636962264879L249.65302442200985,266.6107393403397L252.51189508045434,262.3224333526731L250.28832901277522,255.8105612973276L246.1588491728,261.8459549095991L238.21754178823235,263.4342163865126L242.66467392359039,258.51060580808064L244.2529354005039,253.42816908195718L247.42945835433073,249.13986309429063L246.79415376356536,242.6279910389451L239.80580326514587,250.0928199804388L234.08806194825712,253.1105167865745L230.91153899442986,260.2576934326855L223.92318849601037,256.6046920357844L224.2408407913934,251.8399076050437L218.52309947450442,245.48686169738951L214.0759673391464,242.15151259587097L215.66422881606013,240.0867726758834L204.22874618228263,234.84550980206873L198.19335257001086,234.52785750668605L189.61674059467762,230.23955151901933L173.7341258255421,231.03368225747622L162.2986431917646,234.2102052113033L152.45142203490065,237.227902017439L143.87481005956738,236.59259742667356M92.4151382075684,42.824697243220314L87.05545625889377,39.999999999999986M96.21111348265102,39.999999999999986L96.54461804754362,40.283478880158725L95.90931345677826,42.665871095528985L92.4151382075684,42.824697243220314M130.5495010540708,39.999999999999986L128.94515217658028,41.87174035707227L121.32149708739519,43.777654129368486L120.36854020124701,42.665871095528985L120.92977622135834,39.999999999999986" style="fill: none; stroke-miterlimit: 2; stroke: rgb(68, 68, 68); stroke-opacity: 1; stroke-width: 1px;"/></g><g class="layer lataxis"><path d="M1.4959914467718818,349.39886882445853L23.544149914904466,349.39886882445853L45.60113117554138,349.39886882445853L67.6581124361783,349.39886882445853L89.7150936968152,349.39886882445853L111.77207495745235,349.39886882445853L133.82905621808925,349.39886882445853L155.88603747872617,349.39886882445853L177.94301873936308,349.39886882445853L200,349.39886882445853L222.05698126063692,349.39886882445853L244.11396252127383,349.39886882445853L266.17094378191075,349.39886882445853L288.22792504254767,349.39886882445853L310.2849063031848,349.39886882445853L332.34188756382173,349.39886882445853L354.39886882445865,349.39886882445853L376.45585008509556,349.39886882445853L398.5040085532281,349.39886882445853M1.4959914467718818,305.2849063031847L23.544149914904466,305.2849063031847L45.60113117554138,305.2849063031847L67.6581124361783,305.2849063031847L89.7150936968152,305.2849063031847L111.77207495745235,305.2849063031847L133.82905621808925,305.2849063031847L155.88603747872617,305.2849063031847L177.94301873936308,305.2849063031847L200,305.2849063031847L222.05698126063692,305.2849063031847L244.11396252127383,305.2849063031847L266.17094378191075,305.2849063031847L288.22792504254767,305.2849063031847L310.2849063031848,305.2849063031847L332.34188756382173,305.2849063031847L354.39886882445865,305.2849063031847L376.45585008509556,305.2849063031847L398.5040085532281,305.2849063031847M1.4959914467718818,261.17094378191075L23.544149914904466,261.17094378191075L45.60113117554138,261.17094378191075L67.6581124361783,261.17094378191075L89.7150936968152,261.17094378191075L111.77207495745235,261.17094378191075L133.82905621808925,261.17094378191075L155.88603747872617,261.17094378191075L177.94301873936308,261.17094378191075L200,261.17094378191075L222.05698126063692,261.17094378191075L244.11396252127383,261.17094378191075L266.17094378191075,261.17094378191075L288.22792504254767,261.17094378191075L310.2849063031848,261.17094378191075L332.34188756382173,261.17094378191075L354.39886882445865,261.17094378191075L376.45585008509556,261.17094378191075L398.5040085532281,261.17094378191075M1.4959914467718818,217.0569812606369L23.544149914904466,217.0569812606369L45.60113117554138,217.0569812606369L67.6581124361783,217.0569812606369L89.7150936968152,217.0569812606369L111.77207495745235,217.0569812606369L133.82905621808925,217.0569812606369L155.88603747872617,217.0569812606369L177.94301873936308,217.0569812606369L200,217.0569812606369L222.05698126063692,217.0569812606369L244.11396252127383,217.0569812606369L266.17094378191075,217.0569812606369L288.22792504254767,217.0569812606369L310.2849063031848,217.0569812606369L332.34188756382173,217.0569812606369L354.39886882445865,217.0569812606369L376.45585008509556,217.0569812606369L398.5040085532281,217.0569812606369M1.4959914467718818,172.94301873936305L23.544149914904466,172.94301873936305L45.60113117554138,172.94301873936305L67.6581124361783,172.94301873936305L89.7150936968152,172.94301873936305L111.77207495745235,172.94301873936305L133.82905621808925,172.94301873936305L155.88603747872617,172.94301873936305L177.94301873936308,172.94301873936305L200,172.94301873936305L222.05698126063692,172.94301873936305L244.11396252127383,172.94301873936305L266.17094378191075,172.94301873936305L288.22792504254767,172.94301873936305L310.2849063031848,172.94301873936305L332.34188756382173,172.94301873936305L354.39886882445865,172.94301873936305L376.45585008509556,172.94301873936305L398.5040085532281,172.94301873936305M1.4959914467718818,128.82905621808916L23.544149914904466,128.82905621808916L45.60113117554138,128.82905621808916L67.6581124361783,128.82905621808916L89.7150936968152,128.82905621808916L111.77207495745235,128.82905621808916L133.82905621808925,128.82905621808916L155.88603747872617,128.82905621808916L177.94301873936308,128.82905621808916L200,128.82905621808916L222.05698126063692,128.82905621808916L244.11396252127383,128.82905621808916L266.17094378191075,128.82905621808916L288.22792504254767,128.82905621808916L310.2849063031848,128.82905621808916L332.34188756382173,128.82905621808916L354.39886882445865,128.82905621808916L376.45585008509556,128.82905621808916L398.5040085532281,128.82905621808916M1.4959914467718818,84.71509369681527L23.544149914904466,84.71509369681527L45.60113117554138,84.71509369681527L67.6581124361783,84.71509369681527L89.7150936968152,84.71509369681527L111.77207495745235,84.71509369681527L133.82905621808925,84.71509369681527L155.88603747872617,84.71509369681527L177.94301873936308,84.71509369681527L200,84.71509369681527L222.05698126063692,84.71509369681527L244.11396252127383,84.71509369681527L266.17094378191075,84.71509369681527L288.22792504254767,84.71509369681527L310.2849063031848,84.71509369681527L332.34188756382173,84.71509369681527L354.39886882445865,84.71509369681527L376.45585008509556,84.71509369681527L398.5040085532281,84.71509369681527M1.4959914467718818,40.60113117554141L23.544149914904466,40.60113117554141L45.60113117554138,40.60113117554141L67.6581124361783,40.60113117554141L89.7150936968152,40.60113117554141L111.77207495745235,40.60113117554141L133.82905621808925,40.60113117554141L155.88603747872617,40.60113117554141L177.94301873936308,40.60113117554141L200,40.60113117554141L222.05698126063692,40.60113117554141L244.11396252127383,40.60113117554141L266.17094378191075,40.60113117554141L288.22792504254767,40.60113117554141L310.2849063031848,40.60113117554141L332.34188756382173,40.60113117554141L354.39886882445865,40.60113117554141L376.45585008509556,40.60113117554141L398.5040085532281,40.60113117554141" style="fill: none; stroke: rgb(128, 128, 128); stroke-opacity: 1; stroke-width: 0.5px;"/></g><g class="layer lonaxis"><path d="M45.60113117554138,350L45.60113117554138,349.39886882445853L45.60113117554138,327.3418875638216L45.60113117554138,305.2849063031847L45.60113117554138,283.2279250425478L45.60113117554138,261.17094378191075L45.60113117554138,239.11396252127386L45.60113117554138,217.0569812606369L45.60113117554138,195L45.60113117554138,172.94301873936305L45.60113117554138,150.8860374787261L45.60113117554138,128.82905621808916L45.60113117554138,106.77207495745222L45.60113117554138,84.71509369681527L45.60113117554138,62.65811243617836L45.60113117554138,40.60113117554141L45.60113117554138,39.999999999999986M89.7150936968152,350L89.7150936968152,349.39886882445853L89.7150936968152,327.3418875638216L89.7150936968152,305.2849063031847L89.7150936968152,283.2279250425478L89.7150936968152,261.17094378191075L89.7150936968152,239.11396252127386L89.7150936968152,217.0569812606369L89.7150936968152,195L89.7150936968152,172.94301873936305L89.7150936968152,150.8860374787261L89.7150936968152,128.82905621808916L89.7150936968152,106.77207495745222L89.7150936968152,84.71509369681527L89.7150936968152,62.65811243617836L89.7150936968152,40.60113117554141L89.7150936968152,39.999999999999986M133.82905621808925,350L133.82905621808925,349.39886882445853L133.82905621808925,327.3418875638216L133.82905621808925,305.2849063031847L133.82905621808925,283.2279250425478L133.82905621808925,261.17094378191075L133.82905621808925,239.11396252127386L133.82905621808925,217.0569812606369L133.82905621808925,195L133.82905621808925,172.94301873936305L133.82905621808925,150.8860374787261L133.82905621808925,128.82905621808916L133.82905621808925,106.77207495745222L133.82905621808925,84.71509369681527L133.82905621808925,62.65811243617836L133.82905621808925,40.60113117554141L133.82905621808925,39.999999999999986M177.94301873936308,350L177.94301873936308,349.39886882445853L177.94301873936308,327.3418875638216L177.94301873936308,305.2849063031847L177.94301873936308,283.2279250425478L177.94301873936308,261.17094378191075L177.94301873936308,239.11396252127386L177.94301873936308,217.0569812606369L177.94301873936308,195L177.94301873936308,172.94301873936305L177.94301873936308,150.8860374787261L177.94301873936308,128.82905621808916L177.94301873936308,106.77207495745222L177.94301873936308,84.71509369681527L177.94301873936308,62.65811243617836L177.94301873936308,40.60113117554141L177.94301873936308,39.999999999999986M222.05698126063692,350L222.05698126063692,349.39886882445853L222.05698126063692,327.3418875638216L222.05698126063692,305.2849063031847L222.05698126063692,283.2279250425478L222.05698126063692,261.17094378191075L222.05698126063692,239.11396252127386L222.05698126063692,217.0569812606369L222.05698126063692,195L222.05698126063692,172.94301873936305L222.05698126063692,150.8860374787261L222.05698126063692,128.82905621808916L222.05698126063692,106.77207495745222L222.05698126063692,84.71509369681527L222.05698126063692,62.65811243617836L222.05698126063692,40.60113117554141L222.05698126063692,39.999999999999986M266.17094378191075,350L266.17094378191075,349.39886882445853L266.17094378191075,327.3418875638216L266.17094378191075,305.2849063031847L266.17094378191075,283.2279250425478L266.17094378191075,261.17094378191075L266.17094378191075,239.11396252127386L266.17094378191075,217.0569812606369L266.17094378191075,195L266.17094378191075,172.94301873936305L266.17094378191075,150.8860374787261L266.17094378191075,128.82905621808916L266.17094378191075,106.77207495745222L266.17094378191075,84.71509369681527L266.17094378191075,62.65811243617836L266.17094378191075,40.60113117554141L266.17094378191075,39.999999999999986M310.2849063031848,350L310.2849063031848,349.39886882445853L310.2849063031848,327.3418875638216L310.2849063031848,305.2849063031847L310.2849063031848,283.2279250425478L310.2849063031848,261.17094378191075L310.2849063031848,239.11396252127386L310.2849063031848,217.0569812606369L310.2849063031848,195L310.2849063031848,172.94301873936305L310.2849063031848,150.8860374787261L310.2849063031848,128.82905621808916L310.2849063031848,106.77207495745222L310.2849063031848,84.71509369681527L310.2849063031848,62.65811243617836L310.2849063031848,40.60113117554141L310.2849063031848,39.999999999999986M354.39886882445865,350L354.39886882445865,349.39886882445853L354.39886882445865,327.3418875638216L354.39886882445865,305.2849063031847L354.39886882445865,283.2279250425478L354.39886882445865,261.17094378191075L354.39886882445865,239.11396252127386L354.39886882445865,217.0569812606369L354.39886882445865,195L354.39886882445865,172.94301873936305L354.39886882445865,150.8860374787261L354.39886882445865,128.82905621808916L354.39886882445865,106.77207495745222L354.39886882445865,84.71509369681527L354.39886882445865,62.65811243617836L354.39886882445865,40.60113117554141L354.39886882445865,39.999999999999986" style="fill: none; stroke: rgb(128, 128, 128); stroke-opacity: 1; stroke-width: 0.5px;"/></g><g class="layer frame"><path d="M1.4959914467718818,39.999999999999986L398.5040085532281,39.999999999999986L398.5040085532281,350L1.4959914467718818,350Z" style="fill: none; stroke-miterlimit: 2; stroke: rgb(68, 68, 68); stroke-opacity: 1; stroke-width: 1px;"/></g><g class="layer backplot"><g class="choroplethlayer"/></g><g class="layer frontplot"><g class="scatterlayer"><g class="trace scattergeo" style="opacity: 1;"><path class="point" d="M2,0A2,2 0 1,1 0,-2A2,2 0 0,1 2,0Z" transform="translate(371.28040000209967,195.37496868143083)" style="opacity: 1; stroke-width: 0px; fill: rgb(255, 0, 0); fill-opacity: 1;"/><path class="point" d="M2,0A2,2 0 1,1 0,-2A2,2 0 0,1 2,0Z" transform="translate(339.2757201929155,274.3319033605077)" style="opacity: 1; stroke-width: 0px; fill: rgb(255, 0, 0); fill-opacity: 1;"/><path class="point" d="M2,0A2,2 0 1,1 0,-2A2,2 0 0,1 2,0Z" transform="translate(340.3309261764243,273.58373055614686)" style="opacity: 1; stroke-width: 0px; fill: rgb(255, 0, 0); fill-opacity: 1;"/><path class="point" d="M2,0A2,2 0 1,1 0,-2A2,2 0 0,1 2,0Z" transform="translate(289.1446131837399,281.4192525791756)" style="opacity: 1; stroke-width: 0px; fill: rgb(255, 0, 0); fill-opacity: 1;"/><path class="point" d="M2,0A2,2 0 1,1 0,-2A2,2 0 0,1 2,0Z" transform="translate(322.9844338338092,280.0958337035373)" style="opacity: 1; stroke-width: 0px; fill: rgb(255, 0, 0); fill-opacity: 1;"/><path class="point" d="M2,0A2,2 0 1,1 0,-2A2,2 0 0,1 2,0Z" transform="translate(329.1145100657652,278.6153691213234)" style="opacity: 1; stroke-width: 0px; fill: rgb(255, 0, 0); fill-opacity: 1;"/><path class="point" d="M2,0A2,2 0 1,1 0,-2A2,2 0 0,1 2,0Z" transform="translate(311.6233239260802,315.4240594490743)" style="opacity: 1; stroke-width: 0px; fill: rgb(255, 0, 0); fill-opacity: 1;"/><path class="point" d="M2,0A2,2 0 1,1 0,-2A2,2 0 0,1 2,0Z" transform="translate(330.0109057841976,330.8268906030023)" style="opacity: 1; stroke-width: 0px; fill: rgb(255, 0, 0); fill-opacity: 1;"/><path class="point" d="M2,0A2,2 0 1,1 0,-2A2,2 0 0,1 2,0Z" transform="translate(325.8862502884584,333.5231359923025)" style="opacity: 1; stroke-width: 0px; fill: rgb(255, 0, 0); fill-opacity: 1;"/><path class="point" d="M2,0A2,2 0 1,1 0,-2A2,2 0 0,1 2,0Z" transform="translate(325.01367610978764,322.04556522351754)" style="opacity: 1; stroke-width: 0px; fill: rgb(255, 0, 0); fill-opacity: 1;"/><path class="point" d="M2,0A2,2 0 1,1 0,-2A2,2 0 0,1 2,0Z" transform="translate(315.06421300273934,321.5576647980322)" style="opacity: 1; stroke-width: 0px; fill: rgb(255, 0, 0); fill-opacity: 1;"/></g></g></g></g></g><g class="funnelarealayer"/><g class="pielayer"/><g class="iciclelayer"/><g class="treemaplayer"/><g class="sunburstlayer"/><g class="glimages"/><defs id="topdefs-f77be5"><g class="clips"/></defs><g class="layer-above"><g class="imagelayer"/><g class="shapelayer"/></g><g class="infolayer"><g class="g-gtitle"><text class="gtitle" x="20" y="20" text-anchor="start" dy="0em" style="font-family: 'Open Sans', verdana, arial, sans-serif; font-size: 17px; fill: rgb(42, 63, 95); opacity: 1; font-weight: normal; white-space: pre;">b)</text></g></g></svg>