<svg class="main-svg" xmlns="http://www.w3.org/2000/svg" xmlns:xlink="http://www.w3.org/1999/xlink" width="500" height="500" style="" viewBox="0 0 500 500"><rect x="0" y="0" width="500" height="500" style="fill: rgb(255, 255, 255); fill-opacity: 1;"/><defs id="defs-822503"><g class="clips"><clipPath id="clip822503xyplot" class="plotclip"><rect width="421" height="427"/></clipPath><clipPath class="axesclip" id="clip822503x"><rect x="58" y="0" width="421" height="500"/></clipPath><clipPath class="axesclip" id="clip822503y"><rect x="0" y="20" width="500" height="427"/></clipPath><clipPath class="axesclip" id="clip822503xy"><rect x="58" y="20" width="421" height="427"/></clipPath></g><g class="gradients"/><g class="patterns"/></defs><g class="bglayer"><rect class="bg" x="58" y="20" width="421" height="427" style="fill: rgb(229, 236, 246); fill-opacity: 1; stroke-width: 0;"/></g><g class="layer-below"><g class="imagelayer"/><g class="shapelayer"/></g><g class="cartesianlayer"><g class="subplot xy"><g class="layer-subplot"><g class="shapelayer"/><g class="imagelayer"/></g><g class="minor-gridlayer"><g class="x"/><g class="y"/></g><g class="gridlayer"><g class="x"><path class="xgrid crisp" transform="translate(100.9,0)" d="M0,20v427" style="stroke: rgb(255, 255, 255); stroke-opacity: 1; stroke-width: 1px;"/><path class="xgrid crisp" transform="translate(142.8,0)" d="M0,20v427" style="stroke: rgb(255, 255, 255); stroke-opacity: 1; stroke-width: 1px;"/><path class="xgrid crisp" transform="translate(184.7,0)" d="M0,20v427" style="stroke: rgb(255, 255, 255); stroke-opacity: 1; stroke-width: 1px;"/><path class="xgrid crisp" transform="translate(226.6,0)" d="M0,20v427" style="stroke: rgb(255, 255, 255); stroke-opacity: 1; stroke-width: 1px;"/><path class="xgrid crisp" transform="translate(268.5,0)" d="M0,20v427" style="stroke: rgb(255, 255, 255); stroke-opacity: 1; stroke-width: 1px;"/><path class="xgrid crisp" transform="translate(310.4,0)" d="M0,20v427" style="stroke: rgb(255, 255, 255); stroke-opacity: 1; stroke-width: 1px;"/><path class="xgrid crisp" transform="translate(352.3,0)" d="M0,20v427" style="stroke: rgb(255, 255, 255); stroke-opacity: 1; stroke-width: 1px;"/><path class="xgrid crisp" transform="translate(394.2,0)" d="M0,20v427" style="stroke: rgb(255, 255, 255); stroke-opacity: 1; stroke-width: 1px;"/><path class="xgrid crisp" transform="translate(436.1,0)" d="M0,20v427" style="stroke: rgb(255, 255, 255); stroke-opacity: 1; stroke-width: 1px;"/></g><g class="y"><path class="ygrid crisp" transform="translate(0,387.22)" d="M58,0h421" style="stroke: rgb(255, 255, 255); stroke-opacity: 1; stroke-width: 1px;"/><path class="ygrid crisp" transform="translate(0,348.79)" d="M58,0h421" style="stroke: rgb(255, 255, 255); stroke-opacity: 1; stroke-width: 1px;"/><path class="ygrid crisp" transform="translate(0,310.36)" d="M58,0h421" style="stroke: rgb(255, 255, 255); stroke-opacity: 1; stroke-width: 1px;"/><path class="ygrid crisp" transform="translate(0,271.93)" d="M58,0h421" style="stroke: rgb(255, 255, 255); stroke-opacity: 1; stroke-width: 1px;"/><path class="ygrid crisp" transform="translate(0,233.5)" d="M58,0h421" style="stroke: rgb(255, 255, 255); stroke-opacity: 1; stroke-width: 1px;"/><path class="ygrid crisp" transform="translate(0,195.07)" d="M58,0h421" style="stroke: rgb(255, 255, 255); stroke-opacity: 1; stroke-width: 1px;"/><path class="ygrid crisp" transform="translate(0,156.64)" d="M58,0h421" style="stroke: rgb(255, 255, 255); stroke-opacity: 1; stroke-width: 1px;"/><path class="ygrid crisp" transform="translate(0,118.21)" d="M58,0h421" style="stroke: rgb(255, 255, 255); stroke-opacity: 1; stroke-width: 1px;"/><path class="ygrid crisp" transform="translate(0,79.78)" d="M58,0h421" style="stroke: rgb(255, 255, 255); stroke-opacity: 1; stroke-width: 1px;"/><path class="ygrid crisp" transform="translate(0,41.35)" d="M58,0h421" style="stroke: rgb(255, 255, 255); stroke-opacity: 1; stroke-width: 1px;"/></g></g><g class="zerolinelayer"><path class="yzl zl crisp" transform="translate(0,425.65)" d="M58,0h421" style="stroke: rgb(255, 255, 255); stroke-opacity: 1; stroke-width: 2px;"/></g><path class="xlines-below"/><path class="ylines-below"/><g class="overlines-below"/><g class="xaxislayer-below"/><g class="yaxislayer-below"/><g class="overaxes-below"/><g class="plot" transform="translate(58,20)" clip-path="url(#clip822503xyplot)"><g class="barlayer mlayer"><g class="trace bars" style="opacity: 1;"><g class="points"><g class="point"><path d="M5.19,405.65V190.7H21.95V405.65Z" style="vector-effect: non-scaling-stroke; opacity: 1; stroke-width: 0.5px; fill: rgb(230, 159, 0); fill-opacity: 0.5; stroke: rgb(229, 236, 246); stroke-opacity: 1;"/></g><g class="point"><path d="M47.09,405.65V355.47H63.85V405.65Z" style="vector-effect: non-scaling-stroke; opacity: 1; stroke-width: 0.5px; fill: rgb(230, 159, 0); fill-opacity: 0.5; stroke: rgb(229, 236, 246); stroke-opacity: 1;"/></g><g class="point"><path d="M88.99,405.65V375.02H105.75V405.65Z" style="vector-effect: non-scaling-stroke; opacity: 1; stroke-width: 0.5px; fill: rgb(230, 159, 0); fill-opacity: 0.5; stroke: rgb(229, 236, 246); stroke-opacity: 1;"/></g><g class="point"><path d="M130.89,405.65V383.06H147.65V405.65Z" style="vector-effect: non-scaling-stroke; opacity: 1; stroke-width: 0.5px; fill: rgb(230, 159, 0); fill-opacity: 0.5; stroke: rgb(229, 236, 246); stroke-opacity: 1;"/></g><g class="point"><path d="M172.79,405.65V387.58H189.55V405.65Z" style="vector-effect: non-scaling-stroke; opacity: 1; stroke-width: 0.5px; fill: rgb(230, 159, 0); fill-opacity: 0.5; stroke: rgb(229, 236, 246); stroke-opacity: 1;"/></g><g class="point"><path d="M214.69,405.65V392.47H231.45V405.65Z" style="vector-effect: non-scaling-stroke; opacity: 1; stroke-width: 0.5px; fill: rgb(230, 159, 0); fill-opacity: 0.5; stroke: rgb(229, 236, 246); stroke-opacity: 1;"/></g><g class="point"><path d="M256.59,405.65V392.92H273.35V405.65Z" style="vector-effect: non-scaling-stroke; opacity: 1; stroke-width: 0.5px; fill: rgb(230, 159, 0); fill-opacity: 0.5; stroke: rgb(229, 236, 246); stroke-opacity: 1;"/></g><g class="point"><path d="M298.49,405.65V394.68H315.25V405.65Z" style="vector-effect: non-scaling-stroke; opacity: 1; stroke-width: 0.5px; fill: rgb(230, 159, 0); fill-opacity: 0.5; stroke: rgb(229, 236, 246); stroke-opacity: 1;"/></g><g class="point"><path d="M340.39,405.65V398.61H357.15V405.65Z" style="vector-effect: non-scaling-stroke; opacity: 1; stroke-width: 0.5px; fill: rgb(230, 159, 0); fill-opacity: 0.5; stroke: rgb(229, 236, 246); stroke-opacity: 1;"/></g><g class="point"><path d="M382.29,405.65V401.68H399.05V405.65Z" style="vector-effect: non-scaling-stroke; opacity: 1; stroke-width: 0.5px; fill: rgb(230, 159, 0); fill-opacity: 0.5; stroke: rgb(229, 236, 246); stroke-opacity: 1;"/></g></g></g><g class="trace bars" style="opacity: 1;"><g class="points"><g class="point"><path d="M21.95,405.65V150.42H38.71V405.65Z" style="vector-effect: non-scaling-stroke; opacity: 1; stroke-width: 0.5px; fill: rgb(86, 180, 233); fill-opacity: 0.5; stroke: rgb(229, 236, 246); stroke-opacity: 1;"/></g><g class="point"><path d="M63.85,405.65V354.33H80.61V405.65Z" style="vector-effect: non-scaling-stroke; opacity: 1; stroke-width: 0.5px; fill: rgb(86, 180, 233); fill-opacity: 0.5; stroke: rgb(229, 236, 246); stroke-opacity: 1;"/></g><g class="point"><path d="M105.75,405.65V383.64H122.51V405.65Z" style="vector-effect: non-scaling-stroke; opacity: 1; stroke-width: 0.5px; fill: rgb(86, 180, 233); fill-opacity: 0.5; stroke: rgb(229, 236, 246); stroke-opacity: 1;"/></g><g class="point"><path d="M147.65,405.65V392.47H164.41V405.65Z" style="vector-effect: non-scaling-stroke; opacity: 1; stroke-width: 0.5px; fill: rgb(86, 180, 233); fill-opacity: 0.5; stroke: rgb(229, 236, 246); stroke-opacity: 1;"/></g><g class="point"><path d="M189.55,405.65V394.89H206.31V405.65Z" style="vector-effect: non-scaling-stroke; opacity: 1; stroke-width: 0.5px; fill: rgb(86, 180, 233); fill-opacity: 0.5; stroke: rgb(229, 236, 246); stroke-opacity: 1;"/></g><g class="point"><path d="M231.45,405.65V395.85H248.21V405.65Z" style="vector-effect: non-scaling-stroke; opacity: 1; stroke-width: 0.5px; fill: rgb(86, 180, 233); fill-opacity: 0.5; stroke: rgb(229, 236, 246); stroke-opacity: 1;"/></g><g class="point"><path d="M273.35,405.65V397.34H290.11V405.65Z" style="vector-effect: non-scaling-stroke; opacity: 1; stroke-width: 0.5px; fill: rgb(86, 180, 233); fill-opacity: 0.5; stroke: rgb(229, 236, 246); stroke-opacity: 1;"/></g><g class="point"><path d="M315.25,405.65V399.27H332.01V405.65Z" style="vector-effect: non-scaling-stroke; opacity: 1; stroke-width: 0.5px; fill: rgb(86, 180, 233); fill-opacity: 0.5; stroke: rgb(229, 236, 246); stroke-opacity: 1;"/></g><g class="point"><path d="M357.15,405.65V401.89H373.91V405.65Z" style="vector-effect: non-scaling-stroke; opacity: 1; stroke-width: 0.5px; fill: rgb(86, 180, 233); fill-opacity: 0.5; stroke: rgb(229, 236, 246); stroke-opacity: 1;"/></g><g class="point"><path d="M399.05,405.65V402.1H415.81V405.65Z" style="vector-effect: non-scaling-stroke; opacity: 1; stroke-width: 0.5px; fill: rgb(86, 180, 233); fill-opacity: 0.5; stroke: rgb(229, 236, 246); stroke-opacity: 1;"/></g></g></g></g><g class="scatterlayer mlayer"><g class="trace scatter traceb5c254" style="stroke-miterlimit: 2;"><g class="fills"><g><path class="js-fill" d="M1,405.56L9.38,404.76L13.57,403.8L26.14,400.79L30.33,399.06L34.52,398.79L38.71,396.28L42.9,390.53L47.09,387.35L55.47,374.68L59.66,374.63L63.85,374.21L68.04,366.14L72.23,364.07L76.42,355.6L80.61,352.78L84.8,352.37L88.99,342.56L93.18,336.95L101.56,335.92L105.75,333.96L109.94,331.24L114.13,325.37L118.32,320.88L122.51,320.55L130.89,319.8L135.08,314.94L143.46,312.92L147.65,311.79L151.84,303.17L156.03,278.58L160.22,277.55L164.41,260.47L168.6,259.09L172.79,259.01L176.98,254.26L181.17,251.93L189.55,243.23L193.74,242.56L206.31,239.6L210.5,207.25L214.69,199.57L218.88,199.34L227.26,197.92L231.45,197.78L239.83,193.54L244.02,193.47L248.21,193.45L252.4,189.48L256.59,188.97L260.78,186.24L269.16,186.14L273.35,166.76L277.54,161.54L281.73,161.1L285.92,157.18L290.11,142.71L294.3,141.44L298.49,135.8L302.68,135.79L306.87,132L311.06,124.33L315.25,124.15L319.44,122.95L323.63,113.12L327.82,107.2L332.01,107.02L336.2,106.54L340.39,96.57L344.58,95.97L348.77,93.14L352.96,90.91L357.15,82.14L361.34,75.85L365.53,75.85L373.91,73.28L378.1,73.28L386.48,73.05L390.67,40.89L407.43,40.89L411.62,21.35L411.62,21.35L394.86,21.35L390.67,21.35L386.48,38.06L382.29,40.32L378.1,40.93L373.91,40.93L365.53,43.58L361.34,43.58L357.15,46.14L352.96,52.57L348.77,56.29L344.58,59.78L340.39,60.43L336.2,68.73L332.01,69.69L327.82,70.09L323.63,73.63L319.44,82.84L315.25,85.1L311.06,85.4L306.87,92.52L302.68,97.99L298.49,98.21L294.3,102.04L290.11,102.44L285.92,111.33L281.73,114.39L277.54,114.65L273.35,115.82L269.16,149.45L260.78,149.45L256.59,155.31L252.4,156.31L248.21,163.24L244.02,163.25L239.83,163.32L235.64,165.46L231.45,167.18L214.69,167.89L210.5,168.75L206.31,194.49L202.12,203.89L193.74,208.99L189.55,209.7L185.36,213.5L181.17,218.51L176.98,220.99L172.79,225.04L168.6,225.06L164.41,225.43L160.22,234.09L156.03,234.22L151.84,246.63L147.65,281.89L143.46,284.81L139.27,286.7L135.08,287.52L130.89,295.02L118.32,296.22L114.13,298.26L109.94,303.73L105.75,308.83L101.56,312.09L97.37,312.94L93.18,312.99L88.99,315.93L84.8,329.77L80.61,330.24L76.42,332.58L72.23,341.09L68.04,343.33L63.85,357.72L59.66,358.39L55.47,358.43L51.28,362.14L47.09,369.47L42.9,373.43L38.71,379.56L34.52,389.43L30.33,389.77L17.76,397.05L13.57,398.68L9.38,401.56L5.19,403.84L1,404.77Z" style="fill: rgb(230, 159, 0); fill-opacity: 0.5; stroke-width: 0;"/></g></g><g class="errorbars"/><g class="lines"><path class="js-line" d="M1,404.77L5.19,403.84L9.38,401.56L13.57,398.68L17.76,397.05L30.33,389.77L34.52,389.43L38.71,379.56L42.9,373.43L47.09,369.47L51.28,362.14L55.47,358.43L59.66,358.39L63.85,357.72L68.04,343.33L72.23,341.09L76.42,332.58L80.61,330.24L84.8,329.77L88.99,315.93L93.18,312.99L97.37,312.94L101.56,312.09L105.75,308.83L109.94,303.73L114.13,298.26L118.32,296.22L130.89,295.02L135.08,287.52L139.27,286.7L143.46,284.81L147.65,281.89L151.84,246.63L156.03,234.22L160.22,234.09L164.41,225.43L168.6,225.06L172.79,225.04L176.98,220.99L181.17,218.51L185.36,213.5L189.55,209.7L193.74,208.99L202.12,203.89L206.31,194.49L210.5,168.75L214.69,167.89L231.45,167.18L235.64,165.46L239.83,163.32L244.02,163.25L248.21,163.24L252.4,156.31L256.59,155.31L260.78,149.45L269.16,149.45L273.35,115.82L277.54,114.65L281.73,114.39L285.92,111.33L290.11,102.44L294.3,102.04L298.49,98.21L302.68,97.99L306.87,92.52L311.06,85.4L315.25,85.1L319.44,82.84L323.63,73.63L327.82,70.09L332.01,69.69L336.2,68.73L340.39,60.43L344.58,59.78L348.77,56.29L352.96,52.57L357.15,46.14L361.34,43.58L365.53,43.58L373.91,40.93L378.1,40.93L382.29,40.32L386.48,38.06L390.67,21.35L394.86,21.35L411.62,21.35" style="vector-effect: non-scaling-stroke; fill: none; stroke: rgb(230, 159, 0); stroke-opacity: 0.5; stroke-width: 0px; opacity: 1;"/></g><g class="points"/><g class="text"/></g><g class="trace scatter trace8068d7" style="stroke-miterlimit: 2;"><g class="fills"/><g class="errorbars"/><g class="lines"><path class="js-line" d="M1,405.56L9.38,404.76L13.57,403.8L26.14,400.79L30.33,399.06L34.52,398.79L38.71,396.28L42.9,390.53L47.09,387.35L55.47,374.68L59.66,374.63L63.85,374.21L68.04,366.14L72.23,364.07L76.42,355.6L80.61,352.78L84.8,352.37L88.99,342.56L93.18,336.95L101.56,335.92L105.75,333.96L109.94,331.24L114.13,325.37L118.32,320.88L122.51,320.55L130.89,319.8L135.08,314.94L143.46,312.92L147.65,311.79L151.84,303.17L156.03,278.58L160.22,277.55L164.41,260.47L168.6,259.09L172.79,259.01L176.98,254.26L181.17,251.93L189.55,243.23L193.74,242.56L206.31,239.6L210.5,207.25L214.69,199.57L218.88,199.34L227.26,197.92L231.45,197.78L239.83,193.54L244.02,193.47L248.21,193.45L252.4,189.48L256.59,188.97L260.78,186.24L269.16,186.14L273.35,166.76L277.54,161.54L281.73,161.1L285.92,157.18L290.11,142.71L294.3,141.44L298.49,135.8L302.68,135.79L306.87,132L311.06,124.33L315.25,124.15L319.44,122.95L323.63,113.12L327.82,107.2L332.01,107.02L336.2,106.54L340.39,96.57L344.58,95.97L348.77,93.14L352.96,90.91L357.15,82.14L361.34,75.85L365.53,75.85L373.91,73.28L378.1,73.28L386.48,73.05L390.67,40.89L407.43,40.89L411.62,21.35" style="vector-effect: non-scaling-stroke; fill: none; stroke: rgb(230, 159, 0); stroke-opacity: 0.5; stroke-width: 0px; opacity: 1;"/></g><g class="points"/><g class="text"/></g><g class="trace scatter trace4c34e5" style="stroke-miterlimit: 2; opacity: 1;"><g class="fills"/><g class="errorbars"/><g class="lines"><path class="js-line" d="M1,405.21L9.38,403.33L13.57,401.05L17.76,400.26L21.95,398.69L26.14,396.22L30.33,395.2L34.52,395.2L38.71,388.18L42.9,380.49L47.09,380.2L51.28,370.22L55.47,367.13L63.85,367.13L68.04,353.54L72.23,353.54L76.42,342.93L84.8,342.93L88.99,324.08L105.75,324.08L109.94,320.8L114.13,308.16L118.32,308.16L130.89,308.16L135.08,301.41L147.65,301.41L151.84,274.99L156.03,252.58L160.22,252.58L164.41,237.78L168.6,237.78L181.17,237.78L185.36,228.47L206.31,228.47L210.5,179.3L248.21,179.3L252.4,175.07L269.16,175.07L273.35,133.83L285.92,133.83L290.11,116.87L306.87,116.87L311.06,105.81L319.44,105.81L323.63,88.96L336.2,88.96L340.39,76.25L352.96,76.25L357.15,59.78L386.48,59.78L390.67,28.21L407.43,28.21L411.62,21.35" style="vector-effect: non-scaling-stroke; fill: none; stroke: rgb(230, 159, 0); stroke-opacity: 1; stroke-width: 2px; opacity: 1;"/></g><g class="points"/><g class="text"/></g><g class="trace scatter trace826710" style="stroke-miterlimit: 2;"><g class="fills"><g><path class="js-fill" d="M1,405.65L13.57,404.7L17.76,400.48L21.95,394L26.14,389.04L34.52,376.31L38.71,367.84L42.9,366.88L47.09,359.27L51.28,344.88L55.47,336.67L59.66,325.34L63.85,317.62L68.04,308.42L72.23,305.61L76.42,304.41L80.61,301.03L88.99,290.22L93.18,277.96L101.56,277.27L105.75,273.19L109.94,261.39L114.13,261.28L118.32,259.45L122.51,255.66L143.46,255.27L147.65,223.11L156.03,218.64L160.22,217.8L164.41,213.5L168.6,200.25L172.79,195.05L176.98,192.56L181.17,182.71L185.36,182.43L193.74,182.32L197.93,181.13L202.12,180.23L206.31,175.07L214.69,171.02L218.88,166.92L223.07,165.01L227.26,161.62L235.64,158.6L239.83,140.56L244.02,134.75L248.21,134.47L252.4,132.31L256.59,131.71L264.97,129.27L269.16,128.1L273.35,128.02L277.54,126.8L281.73,121.41L285.92,118.23L294.3,117.42L298.49,115.99L302.68,115.73L306.87,112.85L315.25,105.31L319.44,104.72L332.01,102.87L336.2,101.19L340.39,101.17L344.58,98.21L348.77,92.96L352.96,92.96L357.15,91.22L361.34,77.69L365.53,74.72L369.72,66.77L373.91,66.57L378.1,64.05L382.29,62.04L386.48,39.95L403.24,39.95L407.43,21.35L411.62,21.35L411.62,21.35L386.48,21.35L382.29,24.11L378.1,28.34L373.91,30.29L369.72,30.29L365.53,33.36L361.34,35.58L357.15,42.69L352.96,45.75L348.77,45.75L344.58,52.43L340.39,60.65L336.2,61.1L332.01,65.45L327.82,66.74L323.63,68.54L315.25,70.06L311.06,72.85L302.68,80.73L298.49,81.13L294.3,82.35L290.11,83.52L285.92,83.67L281.73,85.4L277.54,92.52L273.35,96L248.21,100.73L244.02,100.86L239.83,102.19L235.64,112.23L231.45,115.63L227.26,118.64L223.07,122.7L218.88,125.09L214.69,129.57L210.5,132.87L206.31,135.27L202.12,143.16L197.93,144.95L193.74,146.91L181.17,147.31L176.98,151.74L172.79,153.02L168.6,155.35L164.41,165.01L160.22,172.74L156.03,173.4L151.84,175.07L147.65,175.5L143.46,222.83L135.08,223.01L130.89,224L122.51,224.36L118.32,228.28L114.13,229.19L109.94,229.29L105.75,237.35L101.56,243.44L97.37,243.5L93.18,243.84L88.99,251.93L84.8,258.39L80.61,268.51L76.42,276.86L72.23,278.46L68.04,280.18L63.85,286.45L59.66,291.97L55.47,304.97L51.28,315.92L42.9,349.69L38.71,350.75L26.14,374.88L21.95,381.7L17.76,391.27L13.57,400.11L9.38,403.96L5.19,404.08L1,405.65Z" style="fill: rgb(86, 180, 233); fill-opacity: 0.5; stroke-width: 0;"/></g></g><g class="errorbars"/><g class="lines"><path class="js-line" d="M1,405.65L5.19,404.08L9.38,403.96L13.57,400.11L17.76,391.27L21.95,381.7L26.14,374.88L38.71,350.75L42.9,349.69L51.28,315.92L55.47,304.97L59.66,291.97L63.85,286.45L68.04,280.18L72.23,278.46L76.42,276.86L80.61,268.51L84.8,258.39L88.99,251.93L93.18,243.84L97.37,243.5L101.56,243.44L105.75,237.35L109.94,229.29L114.13,229.19L118.32,228.28L122.51,224.36L130.89,224L135.08,223.01L143.46,222.83L147.65,175.5L151.84,175.07L156.03,173.4L160.22,172.74L164.41,165.01L168.6,155.35L172.79,153.02L176.98,151.74L181.17,147.31L193.74,146.91L197.93,144.95L202.12,143.16L206.31,135.27L210.5,132.87L214.69,129.57L218.88,125.09L223.07,122.7L227.26,118.64L231.45,115.63L235.64,112.23L239.83,102.19L244.02,100.86L248.21,100.73L273.35,96L277.54,92.52L281.73,85.4L285.92,83.67L290.11,83.52L294.3,82.35L298.49,81.13L302.68,80.73L311.06,72.85L315.25,70.06L323.63,68.54L327.82,66.74L332.01,65.45L336.2,61.1L340.39,60.65L344.58,52.43L348.77,45.75L352.96,45.75L357.15,42.69L361.34,35.58L365.53,33.36L369.72,30.29L373.91,30.29L378.1,28.34L382.29,24.11L386.48,21.35L411.62,21.35" style="vector-effect: non-scaling-stroke; fill: none; stroke: rgb(86, 180, 233); stroke-opacity: 0.5; stroke-width: 0px; opacity: 1;"/></g><g class="points"/><g class="text"/></g><g class="trace scatter trace8e6dc9" style="stroke-miterlimit: 2;"><g class="fills"/><g class="errorbars"/><g class="lines"><path class="js-line" d="M1,405.65L13.57,404.7L17.76,400.48L21.95,394L26.14,389.04L34.52,376.31L38.71,367.84L42.9,366.88L47.09,359.27L51.28,344.88L55.47,336.67L59.66,325.34L63.85,317.62L68.04,308.42L72.23,305.61L76.42,304.41L80.61,301.03L88.99,290.22L93.18,277.96L101.56,277.27L105.75,273.19L109.94,261.39L114.13,261.28L118.32,259.45L122.51,255.66L143.46,255.27L147.65,223.11L156.03,218.64L160.22,217.8L164.41,213.5L168.6,200.25L172.79,195.05L176.98,192.56L181.17,182.71L185.36,182.43L193.74,182.32L197.93,181.13L202.12,180.23L206.31,175.07L214.69,171.02L218.88,166.92L223.07,165.01L227.26,161.62L235.64,158.6L239.83,140.56L244.02,134.75L248.21,134.47L252.4,132.31L256.59,131.71L264.97,129.27L269.16,128.1L273.35,128.02L277.54,126.8L281.73,121.41L285.92,118.23L294.3,117.42L298.49,115.99L302.68,115.73L306.87,112.85L315.25,105.31L319.44,104.72L332.01,102.87L336.2,101.19L340.39,101.17L344.58,98.21L348.77,92.96L352.96,92.96L357.15,91.22L361.34,77.69L365.53,74.72L369.72,66.77L373.91,66.57L378.1,64.05L382.29,62.04L386.48,39.95L403.24,39.95L407.43,21.35L411.62,21.35" style="vector-effect: non-scaling-stroke; fill: none; stroke: rgb(86, 180, 233); stroke-opacity: 0.5; stroke-width: 0px; opacity: 1;"/></g><g class="points"/><g class="text"/></g><g class="trace scatter trace5c4854" style="stroke-miterlimit: 2; opacity: 1;"><g class="fills"/><g class="errorbars"/><g class="lines"><path class="js-line" d="M1,405.65L5.19,404.67L9.38,404.67L13.57,402.68L17.76,396.02L21.95,387.6L26.14,382.47L38.71,359.16L42.9,359.16L47.09,346.66L51.28,329.16L55.47,322.43L59.66,305.54L63.85,301.7L68.04,291.83L76.42,291.83L80.61,288.69L84.8,276.06L88.99,274.18L93.18,259.03L97.37,259.03L105.75,259.03L109.94,242.78L143.46,242.78L147.65,194.18L164.41,194.18L168.6,169.74L176.98,169.74L181.17,164.4L202.12,164.4L206.31,152.46L214.69,152.46L218.88,144.97L235.64,144.97L239.83,113.47L277.54,113.47L281.73,98.88L306.87,98.21L311.06,88.18L319.44,87.73L323.63,87.73L340.39,87.73L344.58,85.4L348.77,72.59L352.96,72.59L357.15,72.59L361.34,49.82L365.53,49.82L369.72,48.32L382.29,48.32L386.48,28.34L403.24,28.34L407.43,21.35L411.62,21.35" style="vector-effect: non-scaling-stroke; fill: none; stroke: rgb(86, 180, 233); stroke-opacity: 1; stroke-width: 2px; opacity: 1;"/></g><g class="points"/><g class="text"/></g></g></g><g class="overplot"/><path class="xlines-above crisp" d="M0,0" style="fill: none;"/><path class="ylines-above crisp" d="M0,0" style="fill: none;"/><g class="overlines-above"/><g class="xaxislayer-above"><g class="xtick"><text text-anchor="middle" x="0" y="460" transform="translate(59,0)" style="font-family: 'Open Sans', verdana, arial, sans-serif; font-size: 12px; fill: rgb(42, 63, 95); fill-opacity: 1; white-space: pre; opacity: 1;">0</text></g><g class="xtick"><text text-anchor="middle" x="0" y="460" style="font-family: 'Open Sans', verdana, arial, sans-serif; font-size: 12px; fill: rgb(42, 63, 95); fill-opacity: 1; white-space: pre; opacity: 1;" transform="translate(100.9,0)">10</text></g><g class="xtick"><text text-anchor="middle" x="0" y="460" style="font-family: 'Open Sans', verdana, arial, sans-serif; font-size: 12px; fill: rgb(42, 63, 95); fill-opacity: 1; white-space: pre; opacity: 1;" transform="translate(142.8,0)">20</text></g><g class="xtick"><text text-anchor="middle" x="0" y="460" style="font-family: 'Open Sans', verdana, arial, sans-serif; font-size: 12px; fill: rgb(42, 63, 95); fill-opacity: 1; white-space: pre; opacity: 1;" transform="translate(184.7,0)">30</text></g><g class="xtick"><text text-anchor="middle" x="0" y="460" style="font-family: 'Open Sans', verdana, arial, sans-serif; font-size: 12px; fill: rgb(42, 63, 95); fill-opacity: 1; white-space: pre; opacity: 1;" transform="translate(226.6,0)">40</text></g><g class="xtick"><text text-anchor="middle" x="0" y="460" style="font-family: 'Open Sans', verdana, arial, sans-serif; font-size: 12px; fill: rgb(42, 63, 95); fill-opacity: 1; white-space: pre; opacity: 1;" transform="translate(268.5,0)">50</text></g><g class="xtick"><text text-anchor="middle" x="0" y="460" style="font-family: 'Open Sans', verdana, arial, sans-serif; font-size: 12px; fill: rgb(42, 63, 95); fill-opacity: 1; white-space: pre; opacity: 1;" transform="translate(310.4,0)">60</text></g><g class="xtick"><text text-anchor="middle" x="0" y="460" style="font-family: 'Open Sans', verdana, arial, sans-serif; font-size: 12px; fill: rgb(42, 63, 95); fill-opacity: 1; white-space: pre; opacity: 1;" transform="translate(352.3,0)">70</text></g><g class="xtick"><text text-anchor="middle" x="0" y="460" style="font-family: 'Open Sans', verdana, arial, sans-serif; font-size: 12px; fill: rgb(42, 63, 95); fill-opacity: 1; white-space: pre; opacity: 1;" transform="translate(394.2,0)">80</text></g><g class="xtick"><text text-anchor="middle" x="0" y="460" style="font-family: 'Open Sans', verdana, arial, sans-serif; font-size: 12px; fill: rgb(42, 63, 95); fill-opacity: 1; white-space: pre; opacity: 1;" transform="translate(436.1,0)">90</text></g><g class="xtick"><text text-anchor="middle" x="0" y="460" style="font-family: 'Open Sans', verdana, arial, sans-serif; font-size: 12px; fill: rgb(42, 63, 95); fill-opacity: 1; white-space: pre; opacity: 1;" transform="translate(478,0)">100</text></g></g><g class="yaxislayer-above"><g class="ytick"><text text-anchor="end" x="57" y="4.199999999999999" transform="translate(0,425.65)" style="font-family: 'Open Sans', verdana, arial, sans-serif; font-size: 12px; fill: rgb(42, 63, 95); fill-opacity: 1; white-space: pre; opacity: 1;">0</text></g><g class="ytick"><text text-anchor="end" x="57" y="4.199999999999999" style="font-family: 'Open Sans', verdana, arial, sans-serif; font-size: 12px; fill: rgb(42, 63, 95); fill-opacity: 1; white-space: pre; opacity: 1;" transform="translate(0,387.22)">10</text></g><g class="ytick"><text text-anchor="end" x="57" y="4.199999999999999" style="font-family: 'Open Sans', verdana, arial, sans-serif; font-size: 12px; fill: rgb(42, 63, 95); fill-opacity: 1; white-space: pre; opacity: 1;" transform="translate(0,348.79)">20</text></g><g class="ytick"><text text-anchor="end" x="57" y="4.199999999999999" style="font-family: 'Open Sans', verdana, arial, sans-serif; font-size: 12px; fill: rgb(42, 63, 95); fill-opacity: 1; white-space: pre; opacity: 1;" transform="translate(0,310.36)">30</text></g><g class="ytick"><text text-anchor="end" x="57" y="4.199999999999999" style="font-family: 'Open Sans', verdana, arial, sans-serif; font-size: 12px; fill: rgb(42, 63, 95); fill-opacity: 1; white-space: pre; opacity: 1;" transform="translate(0,271.93)">40</text></g><g class="ytick"><text text-anchor="end" x="57" y="4.199999999999999" style="font-family: 'Open Sans', verdana, arial, sans-serif; font-size: 12px; fill: rgb(42, 63, 95); fill-opacity: 1; white-space: pre; opacity: 1;" transform="translate(0,233.5)">50</text></g><g class="ytick"><text text-anchor="end" x="57" y="4.199999999999999" style="font-family: 'Open Sans', verdana, arial, sans-serif; font-size: 12px; fill: rgb(42, 63, 95); fill-opacity: 1; white-space: pre; opacity: 1;" transform="translate(0,195.07)">60</text></g><g class="ytick"><text text-anchor="end" x="57" y="4.199999999999999" style="font-family: 'Open Sans', verdana, arial, sans-serif; font-size: 12px; fill: rgb(42, 63, 95); fill-opacity: 1; white-space: pre; opacity: 1;" transform="translate(0,156.64)">70</text></g><g class="ytick"><text text-anchor="end" x="57" y="4.199999999999999" style="font-family: 'Open Sans', verdana, arial, sans-serif; font-size: 12px; fill: rgb(42, 63, 95); fill-opacity: 1; white-space: pre; opacity: 1;" transform="translate(0,118.21)">80</text></g><g class="ytick"><text text-anchor="end" x="57" y="4.199999999999999" style="font-family: 'Open Sans', verdana, arial, sans-serif; font-size: 12px; fill: rgb(42, 63, 95); fill-opacity: 1; white-space: pre; opacity: 1;" transform="translate(0,79.78)">90</text></g><g class="ytick"><text text-anchor="end" x="57" y="4.199999999999999" style="font-family: 'Open Sans', verdana, arial, sans-serif; font-size: 12px; fill: rgb(42, 63, 95); fill-opacity: 1; white-space: pre; opacity: 1;" transform="translate(0,41.35)">100</text></g></g><g class="overaxes-above"/></g></g><g class="polarlayer"/><g class="smithlayer"/><g class="ternarylayer"/><g class="geolayer"/><g class="funnelarealayer"/><g class="pielayer"/><g class="iciclelayer"/><g class="treemaplayer"/><g class="sunburstlayer"/><g class="glimages"/><defs id="topdefs-822503"><g class="clips"/><clipPath id="legend822503"><rect width="104" height="48" x="0" y="0"/></clipPath></defs><g class="layer-above"><g class="imagelayer"/><g class="shapelayer"><path data-index="0" fill-rule="evenodd" d="M59,425.65L478,41.35" clip-path="url(#clip822503xy)" style="opacity: 1; stroke: rgb(0, 0, 0); stroke-opacity: 1; fill: rgb(0, 0, 0); fill-opacity: 0; stroke-dasharray: 3px, 3px; stroke-width: 2px;"/></g></g><g class="infolayer"><g class="legend" pointer-events="all" transform="translate(62.21,24.270000000000003)"><rect class="bg" shape-rendering="crispEdges" style="stroke: rgb(68, 68, 68); stroke-opacity: 1; fill: rgb(255, 255, 255); fill-opacity: 1; stroke-width: 0px;" width="104" height="48" x="0" y="0"/><g class="scrollbox" transform="" clip-path="url(#legend822503)"><g class="groups"><g class="traces" transform="translate(0,14.5)" style="opacity: 1;"><text class="legendtext" text-anchor="start" x="40" y="4.680000000000001" style="font-family: 'Open Sans', verdana, arial, sans-serif; font-size: 12px; fill: rgb(42, 63, 95); fill-opacity: 1; white-space: pre;">Automated</text><g class="layers" style="opacity: 1;"><g class="legendfill"/><g class="legendlines"><path class="js-line" d="M5,0h30" style="fill: none; stroke: rgb(86, 180, 233); stroke-opacity: 1; stroke-width: 2px;"/></g><g class="legendsymbols"><g class="legendpoints"/></g></g><rect class="legendtoggle" x="0" y="-9.5" width="98.046875" height="19" style="fill: rgb(0, 0, 0); fill-opacity: 0;"/></g><g class="traces" transform="translate(0,33.5)" style="opacity: 1;"><text class="legendtext" text-anchor="start" x="40" y="4.680000000000001" style="font-family: 'Open Sans', verdana, arial, sans-serif; font-size: 12px; fill: rgb(42, 63, 95); fill-opacity: 1; white-space: pre;">Official</text><g class="layers" style="opacity: 1;"><g class="legendfill"/><g class="legendlines"><path class="js-line" d="M5,0h30" style="fill: none; stroke: rgb(230, 159, 0); stroke-opacity: 1; stroke-width: 2px;"/></g><g class="legendsymbols"><g class="legendpoints"/></g></g><rect class="legendtoggle" x="0" y="-9.5" width="98.046875" height="19" style="fill: rgb(0, 0, 0); fill-opacity: 0;"/></g></g></g><rect class="scrollbar" rx="20" ry="3" width="0" height="0" style="fill: rgb(128, 139, 164); fill-opacity: 1;" x="0" y="0"/></g><g class="g-gtitle"/><g class="g-xtitle"><text class="xtitle" x="268.5" y="487.8" text-anchor="middle" style="font-family: 'Open Sans', verdana, arial, sans-serif; font-size: 14px; fill: rgb(42, 63, 95); opacity: 1; font-weight: normal; white-space: pre;">Forecast probability (%)</text></g><g class="g-ytitle" transform="translate(0.8310546875,0)"><text class="ytitle" transform="rotate(-90,12.168750000000003,233.5)" x="12.168750000000003" y="233.5" text-anchor="middle" style="font-family: 'Open Sans', verdana, arial, sans-serif; font-size: 14px; fill: rgb(42, 63, 95); opacity: 1; font-weight: normal; white-space: pre;">Observed frequency (%)</text></g><g class="annotation" data-index="0" style="opacity: 1;"><g class="annotation-text-g" transform="rotate(-45,184.7,156.64)"><g class="cursor-pointer" transform="translate(145,148)"><rect class="bg" x="0.5" y="0.5" width="79" height="17" style="stroke-width: 1px; stroke: rgb(0, 0, 0); stroke-opacity: 0; fill: rgb(0, 0, 0); fill-opacity: 0;"/><text class="annotation-text" text-anchor="middle" x="39.6875" y="13" style="font-family: 'Open Sans', verdana, arial, sans-serif; font-size: 12px; fill: rgb(42, 63, 95); fill-opacity: 1; white-space: pre;">Underforecast</text></g></g></g><g class="annotation" data-index="1" style="opacity: 1;"><g class="annotation-text-g" transform="rotate(-45,352.3,310.36)"><g class="cursor-pointer" transform="translate(316,301)"><rect class="bg" x="0.5" y="0.5" width="72" height="17" style="stroke-width: 1px; stroke: rgb(0, 0, 0); stroke-opacity: 0; fill: rgb(0, 0, 0); fill-opacity: 0;"/><text class="annotation-text" text-anchor="middle" x="36.359375" y="13" style="font-family: 'Open Sans', verdana, arial, sans-serif; font-size: 12px; fill: rgb(42, 63, 95); fill-opacity: 1; white-space: pre;">Overforecast</text></g></g></g></g></svg>