<svg class="main-svg" xmlns="http://www.w3.org/2000/svg" xmlns:xlink="http://www.w3.org/1999/xlink" width="800" height="600" style="" viewBox="0 0 800 600"><rect x="0" y="0" width="800" height="600" style="fill: rgb(255, 255, 255); fill-opacity: 1;"/><defs id="defs-60b0f1"><g class="clips"><clipPath id="clip60b0f1xyplot" class="plotclip"><rect width="326.7" height="231.87999999999997"/></clipPath><clipPath id="clip60b0f1x2y2plot" class="plotclip"><rect width="326.7" height="231.87999999999997"/></clipPath><clipPath id="clip60b0f1x3y3plot" class="plotclip"><rect width="326.7" height="231.88"/></clipPath><clipPath id="clip60b0f1x4y4plot" class="plotclip"><rect width="326.7" height="231.88"/></clipPath><clipPath class="axesclip" id="clip60b0f1x"><rect x="54" y="0" width="326.7" height="600"/></clipPath><clipPath class="axesclip" id="clip60b0f1y"><rect x="0" y="20" width="800" height="231.87999999999997"/></clipPath><clipPath class="axesclip" id="clip60b0f1xy"><rect x="54" y="20" width="326.7" height="231.87999999999997"/></clipPath><clipPath class="axesclip" id="clip60b0f1y2"><rect x="0" y="20" width="800" height="231.87999999999997"/></clipPath><clipPath class="axesclip" id="clip60b0f1xy2"><rect x="54" y="20" width="326.7" height="231.87999999999997"/></clipPath><clipPath class="axesclip" id="clip60b0f1y3"><rect x="0" y="315.12" width="800" height="231.88"/></clipPath><clipPath class="axesclip" id="clip60b0f1xy3"><rect x="54" y="315.12" width="326.7" height="231.88"/></clipPath><clipPath class="axesclip" id="clip60b0f1y4"><rect x="0" y="315.12" width="800" height="231.88"/></clipPath><clipPath class="axesclip" id="clip60b0f1xy4"><rect x="54" y="315.12" width="326.7" height="231.88"/></clipPath><clipPath class="axesclip" id="clip60b0f1x2"><rect x="453.3" y="0" width="326.7" height="600"/></clipPath><clipPath class="axesclip" id="clip60b0f1x2y"><rect x="453.3" y="20" width="326.7" height="231.87999999999997"/></clipPath><clipPath class="axesclip" id="clip60b0f1x2y2"><rect x="453.3" y="20" width="326.7" height="231.87999999999997"/></clipPath><clipPath class="axesclip" id="clip60b0f1x2y3"><rect x="453.3" y="315.12" width="326.7" height="231.88"/></clipPath><clipPath class="axesclip" id="clip60b0f1x2y4"><rect x="453.3" y="315.12" width="326.7" height="231.88"/></clipPath><clipPath class="axesclip" id="clip60b0f1x3"><rect x="54" y="0" width="326.7" height="600"/></clipPath><clipPath class="axesclip" id="clip60b0f1x3y"><rect x="54" y="20" width="326.7" height="231.87999999999997"/></clipPath><clipPath class="axesclip" id="clip60b0f1x3y2"><rect x="54" y="20" width="326.7" height="231.87999999999997"/></clipPath><clipPath class="axesclip" id="clip60b0f1x3y3"><rect x="54" y="315.12" width="326.7" height="231.88"/></clipPath><clipPath class="axesclip" id="clip60b0f1x3y4"><rect x="54" y="315.12" width="326.7" height="231.88"/></clipPath><clipPath class="axesclip" id="clip60b0f1x4"><rect x="453.3" y="0" width="326.7" height="600"/></clipPath><clipPath class="axesclip" id="clip60b0f1x4y"><rect x="453.3" y="20" width="326.7" height="231.87999999999997"/></clipPath><clipPath class="axesclip" id="clip60b0f1x4y2"><rect x="453.3" y="20" width="326.7" height="231.87999999999997"/></clipPath><clipPath class="axesclip" id="clip60b0f1x4y3"><rect x="453.3" y="315.12" width="326.7" height="231.88"/></clipPath><clipPath class="axesclip" id="clip60b0f1x4y4"><rect x="453.3" y="315.12" width="326.7" height="231.88"/></clipPath></g><g class="gradients"/><g class="patterns"/></defs><g class="bglayer"><rect class="bg" x="54" y="20" width="326.7" height="231.87999999999997" style="fill: rgb(229, 236, 246); fill-opacity: 1; stroke-width: 0;"/><rect class="bg" x="453.3" y="20" width="326.7" height="231.87999999999997" style="fill: rgb(229, 236, 246); fill-opacity: 1; stroke-width: 0;"/><rect class="bg" x="54" y="315.12" width="326.7" height="231.88" style="fill: rgb(229, 236, 246); fill-opacity: 1; stroke-width: 0;"/><rect class="bg" x="453.3" y="315.12" width="326.7" height="231.88" style="fill: rgb(229, 236, 246); fill-opacity: 1; stroke-width: 0;"/></g><g class="layer-below"><g class="imagelayer"/><g class="shapelayer"/></g><g class="cartesianlayer"><g class="subplot xy"><g class="layer-subplot"><g class="shapelayer"/><g class="imagelayer"/></g><g class="minor-gridlayer"><g class="x"/><g class="y"/></g><g class="gridlayer"><g class="x"><path class="xgrid crisp" transform="translate(74.08,0)" d="M0,20v231.87999999999997" style="stroke: rgb(255, 255, 255); stroke-opacity: 1; stroke-width: 1px;"/><path class="xgrid crisp" transform="translate(121.84,0)" d="M0,20v231.87999999999997" style="stroke: rgb(255, 255, 255); stroke-opacity: 1; stroke-width: 1px;"/><path class="xgrid crisp" transform="translate(169.59,0)" d="M0,20v231.87999999999997" style="stroke: rgb(255, 255, 255); stroke-opacity: 1; stroke-width: 1px;"/><path class="xgrid crisp" transform="translate(217.35,0)" d="M0,20v231.87999999999997" style="stroke: rgb(255, 255, 255); stroke-opacity: 1; stroke-width: 1px;"/><path class="xgrid crisp" transform="translate(265.11,0)" d="M0,20v231.87999999999997" style="stroke: rgb(255, 255, 255); stroke-opacity: 1; stroke-width: 1px;"/><path class="xgrid crisp" transform="translate(312.86,0)" d="M0,20v231.87999999999997" style="stroke: rgb(255, 255, 255); stroke-opacity: 1; stroke-width: 1px;"/><path class="xgrid crisp" transform="translate(360.61,0)" d="M0,20v231.87999999999997" style="stroke: rgb(255, 255, 255); stroke-opacity: 1; stroke-width: 1px;"/></g><g class="y"><path class="ygrid crisp" transform="translate(0,246.07)" d="M54,0h326.7" style="stroke: rgb(255, 255, 255); stroke-opacity: 1; stroke-width: 1px;"/><path class="ygrid crisp" transform="translate(0,189.37)" d="M54,0h326.7" style="stroke: rgb(255, 255, 255); stroke-opacity: 1; stroke-width: 1px;"/><path class="ygrid crisp" transform="translate(0,132.66)" d="M54,0h326.7" style="stroke: rgb(255, 255, 255); stroke-opacity: 1; stroke-width: 1px;"/><path class="ygrid crisp" transform="translate(0,75.96000000000001)" d="M54,0h326.7" style="stroke: rgb(255, 255, 255); stroke-opacity: 1; stroke-width: 1px;"/></g></g><g class="zerolinelayer"/><path class="xlines-below"/><path class="ylines-below"/><g class="overlines-below"/><g class="xaxislayer-below"/><g class="yaxislayer-below"/><g class="overaxes-below"/><g class="plot" transform="translate(54,20)" clip-path="url(#clip60b0f1xyplot)"><g class="scatterlayer mlayer"><g class="trace scatter trace66a3db" style="stroke-miterlimit: 2; opacity: 1;"><g class="fills"/><g class="errorbars"/><g class="lines"><path class="js-line" d="M20.08,44.44L67.84,60.48L115.59,82.45L163.35,107.11L211.11,134.52L258.86,163.92L306.61,213.15" style="vector-effect: non-scaling-stroke; fill: none; stroke: rgb(230, 159, 0); stroke-opacity: 1; stroke-width: 2px; opacity: 1;"/></g><g class="points"><path class="point" transform="translate(20.08,44.44)" d="M3,0A3,3 0 1,1 0,-3A3,3 0 0,1 3,0Z" style="opacity: 1; stroke-width: 0px; fill: rgb(230, 159, 0); fill-opacity: 1;"/><path class="point" transform="translate(67.84,60.48)" d="M3,0A3,3 0 1,1 0,-3A3,3 0 0,1 3,0Z" style="opacity: 1; stroke-width: 0px; fill: rgb(230, 159, 0); fill-opacity: 1;"/><path class="point" transform="translate(115.59,82.45)" d="M3,0A3,3 0 1,1 0,-3A3,3 0 0,1 3,0Z" style="opacity: 1; stroke-width: 0px; fill: rgb(230, 159, 0); fill-opacity: 1;"/><path class="point" transform="translate(163.35,107.11)" d="M3,0A3,3 0 1,1 0,-3A3,3 0 0,1 3,0Z" style="opacity: 1; stroke-width: 0px; fill: rgb(230, 159, 0); fill-opacity: 1;"/><path class="point" transform="translate(211.11,134.52)" d="M3,0A3,3 0 1,1 0,-3A3,3 0 0,1 3,0Z" style="opacity: 1; stroke-width: 0px; fill: rgb(230, 159, 0); fill-opacity: 1;"/><path class="point" transform="translate(258.86,163.92)" d="M3,0A3,3 0 1,1 0,-3A3,3 0 0,1 3,0Z" style="opacity: 1; stroke-width: 0px; fill: rgb(230, 159, 0); fill-opacity: 1;"/><path class="point" transform="translate(306.61,213.15)" d="M3,0A3,3 0 1,1 0,-3A3,3 0 0,1 3,0Z" style="opacity: 1; stroke-width: 0px; fill: rgb(230, 159, 0); fill-opacity: 1;"/></g><g class="text"/></g><g class="trace scatter trace397b90" style="stroke-miterlimit: 2; opacity: 1;"><g class="fills"/><g class="errorbars"/><g class="lines"><path class="js-line" d="M20.08,15.34L67.84,29.29L115.59,52.9L163.35,87.62L211.11,118.52L258.86,154.07L306.61,216.54" style="vector-effect: non-scaling-stroke; fill: none; stroke: rgb(86, 180, 233); stroke-opacity: 1; stroke-width: 2px; opacity: 1;"/></g><g class="points"><path class="point" transform="translate(20.08,15.34)" d="M3,0A3,3 0 1,1 0,-3A3,3 0 0,1 3,0Z" style="opacity: 1; stroke-width: 0px; fill: rgb(86, 180, 233); fill-opacity: 1;"/><path class="point" transform="translate(67.84,29.29)" d="M3,0A3,3 0 1,1 0,-3A3,3 0 0,1 3,0Z" style="opacity: 1; stroke-width: 0px; fill: rgb(86, 180, 233); fill-opacity: 1;"/><path class="point" transform="translate(115.59,52.9)" d="M3,0A3,3 0 1,1 0,-3A3,3 0 0,1 3,0Z" style="opacity: 1; stroke-width: 0px; fill: rgb(86, 180, 233); fill-opacity: 1;"/><path class="point" transform="translate(163.35,87.62)" d="M3,0A3,3 0 1,1 0,-3A3,3 0 0,1 3,0Z" style="opacity: 1; stroke-width: 0px; fill: rgb(86, 180, 233); fill-opacity: 1;"/><path class="point" transform="translate(211.11,118.52)" d="M3,0A3,3 0 1,1 0,-3A3,3 0 0,1 3,0Z" style="opacity: 1; stroke-width: 0px; fill: rgb(86, 180, 233); fill-opacity: 1;"/><path class="point" transform="translate(258.86,154.07)" d="M3,0A3,3 0 1,1 0,-3A3,3 0 0,1 3,0Z" style="opacity: 1; stroke-width: 0px; fill: rgb(86, 180, 233); fill-opacity: 1;"/><path class="point" transform="translate(306.61,216.54)" d="M3,0A3,3 0 1,1 0,-3A3,3 0 0,1 3,0Z" style="opacity: 1; stroke-width: 0px; fill: rgb(86, 180, 233); fill-opacity: 1;"/></g><g class="text"/></g></g></g><g class="overplot"/><path class="xlines-above crisp" d="M0,0" style="fill: none;"/><path class="ylines-above crisp" d="M0,0" style="fill: none;"/><g class="overlines-above"/><g class="xaxislayer-above"><g class="xtick"><text text-anchor="middle" x="0" y="264.88" transform="translate(74.08,0)" style="font-family: 'Open Sans', verdana, arial, sans-serif; font-size: 12px; fill: rgb(42, 63, 95); fill-opacity: 1; white-space: pre; opacity: 1;">1</text></g><g class="xtick"><text text-anchor="middle" x="0" y="264.88" style="font-family: 'Open Sans', verdana, arial, sans-serif; font-size: 12px; fill: rgb(42, 63, 95); fill-opacity: 1; white-space: pre; opacity: 1;" transform="translate(121.84,0)">2</text></g><g class="xtick"><text text-anchor="middle" x="0" y="264.88" style="font-family: 'Open Sans', verdana, arial, sans-serif; font-size: 12px; fill: rgb(42, 63, 95); fill-opacity: 1; white-space: pre; opacity: 1;" transform="translate(169.59,0)">3</text></g><g class="xtick"><text text-anchor="middle" x="0" y="264.88" style="font-family: 'Open Sans', verdana, arial, sans-serif; font-size: 12px; fill: rgb(42, 63, 95); fill-opacity: 1; white-space: pre; opacity: 1;" transform="translate(217.35,0)">4</text></g><g class="xtick"><text text-anchor="middle" x="0" y="264.88" style="font-family: 'Open Sans', verdana, arial, sans-serif; font-size: 12px; fill: rgb(42, 63, 95); fill-opacity: 1; white-space: pre; opacity: 1;" transform="translate(265.11,0)">5</text></g><g class="xtick"><text text-anchor="middle" x="0" y="264.88" style="font-family: 'Open Sans', verdana, arial, sans-serif; font-size: 12px; fill: rgb(42, 63, 95); fill-opacity: 1; white-space: pre; opacity: 1;" transform="translate(312.86,0)">6</text></g><g class="xtick"><text text-anchor="middle" x="0" y="264.88" style="font-family: 'Open Sans', verdana, arial, sans-serif; font-size: 12px; fill: rgb(42, 63, 95); fill-opacity: 1; white-space: pre; opacity: 1;" transform="translate(360.61,0)">7</text></g></g><g class="yaxislayer-above"><g class="ytick"><text text-anchor="end" x="53" y="4.199999999999999" transform="translate(0,246.07)" style="font-family: 'Open Sans', verdana, arial, sans-serif; font-size: 12px; fill: rgb(42, 63, 95); fill-opacity: 1; white-space: pre; opacity: 1;">0.4</text></g><g class="ytick"><text text-anchor="end" x="53" y="4.199999999999999" style="font-family: 'Open Sans', verdana, arial, sans-serif; font-size: 12px; fill: rgb(42, 63, 95); fill-opacity: 1; white-space: pre; opacity: 1;" transform="translate(0,189.37)">0.5</text></g><g class="ytick"><text text-anchor="end" x="53" y="4.199999999999999" style="font-family: 'Open Sans', verdana, arial, sans-serif; font-size: 12px; fill: rgb(42, 63, 95); fill-opacity: 1; white-space: pre; opacity: 1;" transform="translate(0,132.66)">0.6</text></g><g class="ytick"><text text-anchor="end" x="53" y="4.199999999999999" style="font-family: 'Open Sans', verdana, arial, sans-serif; font-size: 12px; fill: rgb(42, 63, 95); fill-opacity: 1; white-space: pre; opacity: 1;" transform="translate(0,75.96000000000001)">0.7</text></g></g><g class="overaxes-above"/></g><g class="subplot x2y2"><g class="layer-subplot"><g class="shapelayer"/><g class="imagelayer"/></g><g class="minor-gridlayer"><g class="x2"/><g class="y2"/></g><g class="gridlayer"><g class="x2"><path class="x2grid crisp" transform="translate(473.38,0)" d="M0,20v231.87999999999997" style="stroke: rgb(255, 255, 255); stroke-opacity: 1; stroke-width: 1px;"/><path class="x2grid crisp" transform="translate(521.14,0)" d="M0,20v231.87999999999997" style="stroke: rgb(255, 255, 255); stroke-opacity: 1; stroke-width: 1px;"/><path class="x2grid crisp" transform="translate(568.89,0)" d="M0,20v231.87999999999997" style="stroke: rgb(255, 255, 255); stroke-opacity: 1; stroke-width: 1px;"/><path class="x2grid crisp" transform="translate(616.65,0)" d="M0,20v231.87999999999997" style="stroke: rgb(255, 255, 255); stroke-opacity: 1; stroke-width: 1px;"/><path class="x2grid crisp" transform="translate(664.4100000000001,0)" d="M0,20v231.87999999999997" style="stroke: rgb(255, 255, 255); stroke-opacity: 1; stroke-width: 1px;"/><path class="x2grid crisp" transform="translate(712.1600000000001,0)" d="M0,20v231.87999999999997" style="stroke: rgb(255, 255, 255); stroke-opacity: 1; stroke-width: 1px;"/><path class="x2grid crisp" transform="translate(759.9100000000001,0)" d="M0,20v231.87999999999997" style="stroke: rgb(255, 255, 255); stroke-opacity: 1; stroke-width: 1px;"/></g><g class="y2"><path class="y2grid crisp" transform="translate(0,236.83)" d="M453.3,0h326.7" style="stroke: rgb(255, 255, 255); stroke-opacity: 1; stroke-width: 1px;"/><path class="y2grid crisp" transform="translate(0,175.83)" d="M453.3,0h326.7" style="stroke: rgb(255, 255, 255); stroke-opacity: 1; stroke-width: 1px;"/><path class="y2grid crisp" transform="translate(0,114.84)" d="M453.3,0h326.7" style="stroke: rgb(255, 255, 255); stroke-opacity: 1; stroke-width: 1px;"/><path class="y2grid crisp" transform="translate(0,53.85)" d="M453.3,0h326.7" style="stroke: rgb(255, 255, 255); stroke-opacity: 1; stroke-width: 1px;"/></g></g><g class="zerolinelayer"/><path class="xlines-below"/><path class="ylines-below"/><g class="overlines-below"/><g class="xaxislayer-below"/><g class="yaxislayer-below"/><g class="overaxes-below"/><g class="plot" transform="translate(453.3,20)" clip-path="url(#clip60b0f1x2y2plot)"><g class="scatterlayer mlayer"><g class="trace scatter trace360ece" style="stroke-miterlimit: 2; opacity: 1;"><g class="fills"/><g class="errorbars"/><g class="lines"><path class="js-line" d="M20.08,17.96L67.84,27.13L115.59,47.76L163.35,69.46L211.11,94.91L258.86,139.54L306.61,216.54" style="vector-effect: non-scaling-stroke; fill: none; stroke: rgb(230, 159, 0); stroke-opacity: 1; stroke-width: 2px; opacity: 1;"/></g><g class="points"><path class="point" transform="translate(20.08,17.96)" d="M3,0A3,3 0 1,1 0,-3A3,3 0 0,1 3,0Z" style="opacity: 1; stroke-width: 0px; fill: rgb(230, 159, 0); fill-opacity: 1;"/><path class="point" transform="translate(67.84,27.13)" d="M3,0A3,3 0 1,1 0,-3A3,3 0 0,1 3,0Z" style="opacity: 1; stroke-width: 0px; fill: rgb(230, 159, 0); fill-opacity: 1;"/><path class="point" transform="translate(115.59,47.76)" d="M3,0A3,3 0 1,1 0,-3A3,3 0 0,1 3,0Z" style="opacity: 1; stroke-width: 0px; fill: rgb(230, 159, 0); fill-opacity: 1;"/><path class="point" transform="translate(163.35,69.46)" d="M3,0A3,3 0 1,1 0,-3A3,3 0 0,1 3,0Z" style="opacity: 1; stroke-width: 0px; fill: rgb(230, 159, 0); fill-opacity: 1;"/><path class="point" transform="translate(211.11,94.91)" d="M3,0A3,3 0 1,1 0,-3A3,3 0 0,1 3,0Z" style="opacity: 1; stroke-width: 0px; fill: rgb(230, 159, 0); fill-opacity: 1;"/><path class="point" transform="translate(258.86,139.54)" d="M3,0A3,3 0 1,1 0,-3A3,3 0 0,1 3,0Z" style="opacity: 1; stroke-width: 0px; fill: rgb(230, 159, 0); fill-opacity: 1;"/><path class="point" transform="translate(306.61,216.54)" d="M3,0A3,3 0 1,1 0,-3A3,3 0 0,1 3,0Z" style="opacity: 1; stroke-width: 0px; fill: rgb(230, 159, 0); fill-opacity: 1;"/></g><g class="text"/></g><g class="trace scatter trace81ca78" style="stroke-miterlimit: 2; opacity: 1;"><g class="fills"/><g class="errorbars"/><g class="lines"><path class="js-line" d="M20.08,15.34L67.84,26.48L115.59,48.02L163.35,69.78L211.11,94.75L258.86,134.66L306.61,207.17" style="vector-effect: non-scaling-stroke; fill: none; stroke: rgb(86, 180, 233); stroke-opacity: 1; stroke-width: 2px; opacity: 1;"/></g><g class="points"><path class="point" transform="translate(20.08,15.34)" d="M3,0A3,3 0 1,1 0,-3A3,3 0 0,1 3,0Z" style="opacity: 1; stroke-width: 0px; fill: rgb(86, 180, 233); fill-opacity: 1;"/><path class="point" transform="translate(67.84,26.48)" d="M3,0A3,3 0 1,1 0,-3A3,3 0 0,1 3,0Z" style="opacity: 1; stroke-width: 0px; fill: rgb(86, 180, 233); fill-opacity: 1;"/><path class="point" transform="translate(115.59,48.02)" d="M3,0A3,3 0 1,1 0,-3A3,3 0 0,1 3,0Z" style="opacity: 1; stroke-width: 0px; fill: rgb(86, 180, 233); fill-opacity: 1;"/><path class="point" transform="translate(163.35,69.78)" d="M3,0A3,3 0 1,1 0,-3A3,3 0 0,1 3,0Z" style="opacity: 1; stroke-width: 0px; fill: rgb(86, 180, 233); fill-opacity: 1;"/><path class="point" transform="translate(211.11,94.75)" d="M3,0A3,3 0 1,1 0,-3A3,3 0 0,1 3,0Z" style="opacity: 1; stroke-width: 0px; fill: rgb(86, 180, 233); fill-opacity: 1;"/><path class="point" transform="translate(258.86,134.66)" d="M3,0A3,3 0 1,1 0,-3A3,3 0 0,1 3,0Z" style="opacity: 1; stroke-width: 0px; fill: rgb(86, 180, 233); fill-opacity: 1;"/><path class="point" transform="translate(306.61,207.17)" d="M3,0A3,3 0 1,1 0,-3A3,3 0 0,1 3,0Z" style="opacity: 1; stroke-width: 0px; fill: rgb(86, 180, 233); fill-opacity: 1;"/></g><g class="text"/></g></g></g><g class="overplot"/><path class="xlines-above crisp" d="M0,0" style="fill: none;"/><path class="ylines-above crisp" d="M0,0" style="fill: none;"/><g class="overlines-above"/><g class="xaxislayer-above"><g class="x2tick"><text text-anchor="middle" x="0" y="264.88" transform="translate(473.38,0)" style="font-family: 'Open Sans', verdana, arial, sans-serif; font-size: 12px; fill: rgb(42, 63, 95); fill-opacity: 1; white-space: pre; opacity: 1;">1</text></g><g class="x2tick"><text text-anchor="middle" x="0" y="264.88" style="font-family: 'Open Sans', verdana, arial, sans-serif; font-size: 12px; fill: rgb(42, 63, 95); fill-opacity: 1; white-space: pre; opacity: 1;" transform="translate(521.14,0)">2</text></g><g class="x2tick"><text text-anchor="middle" x="0" y="264.88" style="font-family: 'Open Sans', verdana, arial, sans-serif; font-size: 12px; fill: rgb(42, 63, 95); fill-opacity: 1; white-space: pre; opacity: 1;" transform="translate(568.89,0)">3</text></g><g class="x2tick"><text text-anchor="middle" x="0" y="264.88" style="font-family: 'Open Sans', verdana, arial, sans-serif; font-size: 12px; fill: rgb(42, 63, 95); fill-opacity: 1; white-space: pre; opacity: 1;" transform="translate(616.65,0)">4</text></g><g class="x2tick"><text text-anchor="middle" x="0" y="264.88" style="font-family: 'Open Sans', verdana, arial, sans-serif; font-size: 12px; fill: rgb(42, 63, 95); fill-opacity: 1; white-space: pre; opacity: 1;" transform="translate(664.4100000000001,0)">5</text></g><g class="x2tick"><text text-anchor="middle" x="0" y="264.88" style="font-family: 'Open Sans', verdana, arial, sans-serif; font-size: 12px; fill: rgb(42, 63, 95); fill-opacity: 1; white-space: pre; opacity: 1;" transform="translate(712.1600000000001,0)">6</text></g><g class="x2tick"><text text-anchor="middle" x="0" y="264.88" style="font-family: 'Open Sans', verdana, arial, sans-serif; font-size: 12px; fill: rgb(42, 63, 95); fill-opacity: 1; white-space: pre; opacity: 1;" transform="translate(759.9100000000001,0)">7</text></g></g><g class="yaxislayer-above"><g class="y2tick"><text text-anchor="end" x="452.3" y="4.199999999999999" transform="translate(0,236.83)" style="font-family: 'Open Sans', verdana, arial, sans-serif; font-size: 12px; fill: rgb(42, 63, 95); fill-opacity: 1; white-space: pre; opacity: 1;">0.75</text></g><g class="y2tick"><text text-anchor="end" x="452.3" y="4.199999999999999" style="font-family: 'Open Sans', verdana, arial, sans-serif; font-size: 12px; fill: rgb(42, 63, 95); fill-opacity: 1; white-space: pre; opacity: 1;" transform="translate(0,175.83)">0.8</text></g><g class="y2tick"><text text-anchor="end" x="452.3" y="4.199999999999999" style="font-family: 'Open Sans', verdana, arial, sans-serif; font-size: 12px; fill: rgb(42, 63, 95); fill-opacity: 1; white-space: pre; opacity: 1;" transform="translate(0,114.84)">0.85</text></g><g class="y2tick"><text text-anchor="end" x="452.3" y="4.199999999999999" style="font-family: 'Open Sans', verdana, arial, sans-serif; font-size: 12px; fill: rgb(42, 63, 95); fill-opacity: 1; white-space: pre; opacity: 1;" transform="translate(0,53.85)">0.9</text></g></g><g class="overaxes-above"/></g><g class="subplot x3y3"><g class="layer-subplot"><g class="shapelayer"/><g class="imagelayer"/></g><g class="minor-gridlayer"><g class="x3"/><g class="y3"/></g><g class="gridlayer"><g class="x3"><path class="x3grid crisp" transform="translate(74.08,0)" d="M0,315.12v231.88" style="stroke: rgb(255, 255, 255); stroke-opacity: 1; stroke-width: 1px;"/><path class="x3grid crisp" transform="translate(121.84,0)" d="M0,315.12v231.88" style="stroke: rgb(255, 255, 255); stroke-opacity: 1; stroke-width: 1px;"/><path class="x3grid crisp" transform="translate(169.59,0)" d="M0,315.12v231.88" style="stroke: rgb(255, 255, 255); stroke-opacity: 1; stroke-width: 1px;"/><path class="x3grid crisp" transform="translate(217.35,0)" d="M0,315.12v231.88" style="stroke: rgb(255, 255, 255); stroke-opacity: 1; stroke-width: 1px;"/><path class="x3grid crisp" transform="translate(265.11,0)" d="M0,315.12v231.88" style="stroke: rgb(255, 255, 255); stroke-opacity: 1; stroke-width: 1px;"/><path class="x3grid crisp" transform="translate(312.86,0)" d="M0,315.12v231.88" style="stroke: rgb(255, 255, 255); stroke-opacity: 1; stroke-width: 1px;"/><path class="x3grid crisp" transform="translate(360.61,0)" d="M0,315.12v231.88" style="stroke: rgb(255, 255, 255); stroke-opacity: 1; stroke-width: 1px;"/></g><g class="y3"><path class="y3grid crisp" transform="translate(0,545.55)" d="M54,0h326.7" style="stroke: rgb(255, 255, 255); stroke-opacity: 1; stroke-width: 1px;"/><path class="y3grid crisp" transform="translate(0,489.89)" d="M54,0h326.7" style="stroke: rgb(255, 255, 255); stroke-opacity: 1; stroke-width: 1px;"/><path class="y3grid crisp" transform="translate(0,434.24)" d="M54,0h326.7" style="stroke: rgb(255, 255, 255); stroke-opacity: 1; stroke-width: 1px;"/><path class="y3grid crisp" transform="translate(0,378.58)" d="M54,0h326.7" style="stroke: rgb(255, 255, 255); stroke-opacity: 1; stroke-width: 1px;"/><path class="y3grid crisp" transform="translate(0,322.93)" d="M54,0h326.7" style="stroke: rgb(255, 255, 255); stroke-opacity: 1; stroke-width: 1px;"/></g></g><g class="zerolinelayer"/><path class="xlines-below"/><path class="ylines-below"/><g class="overlines-below"/><g class="xaxislayer-below"/><g class="yaxislayer-below"/><g class="overaxes-below"/><g class="plot" transform="translate(54,315.12)" clip-path="url(#clip60b0f1x3y3plot)"><g class="scatterlayer mlayer"><g class="trace scatter trace830dab" style="stroke-miterlimit: 2; opacity: 1;"><g class="fills"/><g class="errorbars"/><g class="lines"><path class="js-line" d="M20.08,216.54L67.84,203.26L115.59,185.93L163.35,160.41L211.11,128.16L258.86,67.78L306.61,15.34" style="vector-effect: non-scaling-stroke; fill: none; stroke: rgb(230, 159, 0); stroke-opacity: 1; stroke-width: 2px; opacity: 1;"/></g><g class="points"><path class="point" transform="translate(20.08,216.54)" d="M3,0A3,3 0 1,1 0,-3A3,3 0 0,1 3,0Z" style="opacity: 1; stroke-width: 0px; fill: rgb(230, 159, 0); fill-opacity: 1;"/><path class="point" transform="translate(67.84,203.26)" d="M3,0A3,3 0 1,1 0,-3A3,3 0 0,1 3,0Z" style="opacity: 1; stroke-width: 0px; fill: rgb(230, 159, 0); fill-opacity: 1;"/><path class="point" transform="translate(115.59,185.93)" d="M3,0A3,3 0 1,1 0,-3A3,3 0 0,1 3,0Z" style="opacity: 1; stroke-width: 0px; fill: rgb(230, 159, 0); fill-opacity: 1;"/><path class="point" transform="translate(163.35,160.41)" d="M3,0A3,3 0 1,1 0,-3A3,3 0 0,1 3,0Z" style="opacity: 1; stroke-width: 0px; fill: rgb(230, 159, 0); fill-opacity: 1;"/><path class="point" transform="translate(211.11,128.16)" d="M3,0A3,3 0 1,1 0,-3A3,3 0 0,1 3,0Z" style="opacity: 1; stroke-width: 0px; fill: rgb(230, 159, 0); fill-opacity: 1;"/><path class="point" transform="translate(258.86,67.78)" d="M3,0A3,3 0 1,1 0,-3A3,3 0 0,1 3,0Z" style="opacity: 1; stroke-width: 0px; fill: rgb(230, 159, 0); fill-opacity: 1;"/><path class="point" transform="translate(306.61,15.34)" d="M3,0A3,3 0 1,1 0,-3A3,3 0 0,1 3,0Z" style="opacity: 1; stroke-width: 0px; fill: rgb(230, 159, 0); fill-opacity: 1;"/></g><g class="text"/></g><g class="trace scatter traced05aaa" style="stroke-miterlimit: 2; opacity: 1;"><g class="fills"/><g class="errorbars"/><g class="lines"><path class="js-line" d="M20.08,214.56L67.84,201.51L115.59,184.02L163.35,160.32L211.11,128.43L258.86,65.26L306.61,16.03" style="vector-effect: non-scaling-stroke; fill: none; stroke: rgb(86, 180, 233); stroke-opacity: 1; stroke-width: 2px; opacity: 1;"/></g><g class="points"><path class="point" transform="translate(20.08,214.56)" d="M3,0A3,3 0 1,1 0,-3A3,3 0 0,1 3,0Z" style="opacity: 1; stroke-width: 0px; fill: rgb(86, 180, 233); fill-opacity: 1;"/><path class="point" transform="translate(67.84,201.51)" d="M3,0A3,3 0 1,1 0,-3A3,3 0 0,1 3,0Z" style="opacity: 1; stroke-width: 0px; fill: rgb(86, 180, 233); fill-opacity: 1;"/><path class="point" transform="translate(115.59,184.02)" d="M3,0A3,3 0 1,1 0,-3A3,3 0 0,1 3,0Z" style="opacity: 1; stroke-width: 0px; fill: rgb(86, 180, 233); fill-opacity: 1;"/><path class="point" transform="translate(163.35,160.32)" d="M3,0A3,3 0 1,1 0,-3A3,3 0 0,1 3,0Z" style="opacity: 1; stroke-width: 0px; fill: rgb(86, 180, 233); fill-opacity: 1;"/><path class="point" transform="translate(211.11,128.43)" d="M3,0A3,3 0 1,1 0,-3A3,3 0 0,1 3,0Z" style="opacity: 1; stroke-width: 0px; fill: rgb(86, 180, 233); fill-opacity: 1;"/><path class="point" transform="translate(258.86,65.26)" d="M3,0A3,3 0 1,1 0,-3A3,3 0 0,1 3,0Z" style="opacity: 1; stroke-width: 0px; fill: rgb(86, 180, 233); fill-opacity: 1;"/><path class="point" transform="translate(306.61,16.03)" d="M3,0A3,3 0 1,1 0,-3A3,3 0 0,1 3,0Z" style="opacity: 1; stroke-width: 0px; fill: rgb(86, 180, 233); fill-opacity: 1;"/></g><g class="text"/></g></g></g><g class="overplot"/><path class="xlines-above crisp" d="M0,0" style="fill: none;"/><path class="ylines-above crisp" d="M0,0" style="fill: none;"/><g class="overlines-above"/><g class="xaxislayer-above"><g class="x3tick"><text text-anchor="middle" x="0" y="560" transform="translate(74.08,0)" style="font-family: 'Open Sans', verdana, arial, sans-serif; font-size: 12px; fill: rgb(42, 63, 95); fill-opacity: 1; white-space: pre; opacity: 1;">1</text></g><g class="x3tick"><text text-anchor="middle" x="0" y="560" style="font-family: 'Open Sans', verdana, arial, sans-serif; font-size: 12px; fill: rgb(42, 63, 95); fill-opacity: 1; white-space: pre; opacity: 1;" transform="translate(121.84,0)">2</text></g><g class="x3tick"><text text-anchor="middle" x="0" y="560" style="font-family: 'Open Sans', verdana, arial, sans-serif; font-size: 12px; fill: rgb(42, 63, 95); fill-opacity: 1; white-space: pre; opacity: 1;" transform="translate(169.59,0)">3</text></g><g class="x3tick"><text text-anchor="middle" x="0" y="560" style="font-family: 'Open Sans', verdana, arial, sans-serif; font-size: 12px; fill: rgb(42, 63, 95); fill-opacity: 1; white-space: pre; opacity: 1;" transform="translate(217.35,0)">4</text></g><g class="x3tick"><text text-anchor="middle" x="0" y="560" style="font-family: 'Open Sans', verdana, arial, sans-serif; font-size: 12px; fill: rgb(42, 63, 95); fill-opacity: 1; white-space: pre; opacity: 1;" transform="translate(265.11,0)">5</text></g><g class="x3tick"><text text-anchor="middle" x="0" y="560" style="font-family: 'Open Sans', verdana, arial, sans-serif; font-size: 12px; fill: rgb(42, 63, 95); fill-opacity: 1; white-space: pre; opacity: 1;" transform="translate(312.86,0)">6</text></g><g class="x3tick"><text text-anchor="middle" x="0" y="560" style="font-family: 'Open Sans', verdana, arial, sans-serif; font-size: 12px; fill: rgb(42, 63, 95); fill-opacity: 1; white-space: pre; opacity: 1;" transform="translate(360.61,0)">7</text></g></g><g class="yaxislayer-above"><g class="y3tick"><text text-anchor="end" x="53" y="4.199999999999999" transform="translate(0,545.55)" style="font-family: 'Open Sans', verdana, arial, sans-serif; font-size: 12px; fill: rgb(42, 63, 95); fill-opacity: 1; white-space: pre; opacity: 1;">2</text></g><g class="y3tick"><text text-anchor="end" x="53" y="4.199999999999999" style="font-family: 'Open Sans', verdana, arial, sans-serif; font-size: 12px; fill: rgb(42, 63, 95); fill-opacity: 1; white-space: pre; opacity: 1;" transform="translate(0,489.89)">4</text></g><g class="y3tick"><text text-anchor="end" x="53" y="4.199999999999999" style="font-family: 'Open Sans', verdana, arial, sans-serif; font-size: 12px; fill: rgb(42, 63, 95); fill-opacity: 1; white-space: pre; opacity: 1;" transform="translate(0,434.24)">6</text></g><g class="y3tick"><text text-anchor="end" x="53" y="4.199999999999999" style="font-family: 'Open Sans', verdana, arial, sans-serif; font-size: 12px; fill: rgb(42, 63, 95); fill-opacity: 1; white-space: pre; opacity: 1;" transform="translate(0,378.58)">8</text></g><g class="y3tick"><text text-anchor="end" x="53" y="4.199999999999999" style="font-family: 'Open Sans', verdana, arial, sans-serif; font-size: 12px; fill: rgb(42, 63, 95); fill-opacity: 1; white-space: pre; opacity: 1;" transform="translate(0,322.93)">10</text></g></g><g class="overaxes-above"/></g><g class="subplot x4y4"><g class="layer-subplot"><g class="shapelayer"/><g class="imagelayer"/></g><g class="minor-gridlayer"><g class="x4"/><g class="y4"/></g><g class="gridlayer"><g class="x4"><path class="x4grid crisp" transform="translate(473.38,0)" d="M0,315.12v231.88" style="stroke: rgb(255, 255, 255); stroke-opacity: 1; stroke-width: 1px;"/><path class="x4grid crisp" transform="translate(521.14,0)" d="M0,315.12v231.88" style="stroke: rgb(255, 255, 255); stroke-opacity: 1; stroke-width: 1px;"/><path class="x4grid crisp" transform="translate(568.89,0)" d="M0,315.12v231.88" style="stroke: rgb(255, 255, 255); stroke-opacity: 1; stroke-width: 1px;"/><path class="x4grid crisp" transform="translate(616.65,0)" d="M0,315.12v231.88" style="stroke: rgb(255, 255, 255); stroke-opacity: 1; stroke-width: 1px;"/><path class="x4grid crisp" transform="translate(664.4100000000001,0)" d="M0,315.12v231.88" style="stroke: rgb(255, 255, 255); stroke-opacity: 1; stroke-width: 1px;"/><path class="x4grid crisp" transform="translate(712.1600000000001,0)" d="M0,315.12v231.88" style="stroke: rgb(255, 255, 255); stroke-opacity: 1; stroke-width: 1px;"/><path class="x4grid crisp" transform="translate(759.9100000000001,0)" d="M0,315.12v231.88" style="stroke: rgb(255, 255, 255); stroke-opacity: 1; stroke-width: 1px;"/></g><g class="y4"><path class="y4grid crisp" transform="translate(0,531.6)" d="M453.3,0h326.7" style="stroke: rgb(255, 255, 255); stroke-opacity: 1; stroke-width: 1px;"/><path class="y4grid crisp" transform="translate(0,486.96000000000004)" d="M453.3,0h326.7" style="stroke: rgb(255, 255, 255); stroke-opacity: 1; stroke-width: 1px;"/><path class="y4grid crisp" transform="translate(0,442.32)" d="M453.3,0h326.7" style="stroke: rgb(255, 255, 255); stroke-opacity: 1; stroke-width: 1px;"/><path class="y4grid crisp" transform="translate(0,397.68)" d="M453.3,0h326.7" style="stroke: rgb(255, 255, 255); stroke-opacity: 1; stroke-width: 1px;"/><path class="y4grid crisp" transform="translate(0,353.04)" d="M453.3,0h326.7" style="stroke: rgb(255, 255, 255); stroke-opacity: 1; stroke-width: 1px;"/></g></g><g class="zerolinelayer"/><path class="xlines-below"/><path class="ylines-below"/><g class="overlines-below"/><g class="xaxislayer-below"/><g class="yaxislayer-below"/><g class="overaxes-below"/><g class="plot" transform="translate(453.3,315.12)" clip-path="url(#clip60b0f1x4y4plot)"><g class="scatterlayer mlayer"><g class="trace scatter trace963cc8" style="stroke-miterlimit: 2; opacity: 1;"><g class="fills"/><g class="errorbars"/><g class="lines"><path class="js-line" d="M20.08,216.54L67.84,202.83L115.59,182.83L163.35,151.01L211.11,105.78L258.86,30.6L306.61,19.6" style="vector-effect: non-scaling-stroke; fill: none; stroke: rgb(230, 159, 0); stroke-opacity: 1; stroke-width: 2px; opacity: 1;"/></g><g class="points"><path class="point" transform="translate(20.08,216.54)" d="M3,0A3,3 0 1,1 0,-3A3,3 0 0,1 3,0Z" style="opacity: 1; stroke-width: 0px; fill: rgb(230, 159, 0); fill-opacity: 1;"/><path class="point" transform="translate(67.84,202.83)" d="M3,0A3,3 0 1,1 0,-3A3,3 0 0,1 3,0Z" style="opacity: 1; stroke-width: 0px; fill: rgb(230, 159, 0); fill-opacity: 1;"/><path class="point" transform="translate(115.59,182.83)" d="M3,0A3,3 0 1,1 0,-3A3,3 0 0,1 3,0Z" style="opacity: 1; stroke-width: 0px; fill: rgb(230, 159, 0); fill-opacity: 1;"/><path class="point" transform="translate(163.35,151.01)" d="M3,0A3,3 0 1,1 0,-3A3,3 0 0,1 3,0Z" style="opacity: 1; stroke-width: 0px; fill: rgb(230, 159, 0); fill-opacity: 1;"/><path class="point" transform="translate(211.11,105.78)" d="M3,0A3,3 0 1,1 0,-3A3,3 0 0,1 3,0Z" style="opacity: 1; stroke-width: 0px; fill: rgb(230, 159, 0); fill-opacity: 1;"/><path class="point" transform="translate(258.86,30.6)" d="M3,0A3,3 0 1,1 0,-3A3,3 0 0,1 3,0Z" style="opacity: 1; stroke-width: 0px; fill: rgb(230, 159, 0); fill-opacity: 1;"/><path class="point" transform="translate(306.61,19.6)" d="M3,0A3,3 0 1,1 0,-3A3,3 0 0,1 3,0Z" style="opacity: 1; stroke-width: 0px; fill: rgb(230, 159, 0); fill-opacity: 1;"/></g><g class="text"/></g><g class="trace scatter trace723bfe" style="stroke-miterlimit: 2; opacity: 1;"><g class="fills"/><g class="errorbars"/><g class="lines"><path class="js-line" d="M20.08,202.6L67.84,190.19L115.59,164.68L163.35,146.15L211.11,104.44L258.86,15.34L306.61,20.6" style="vector-effect: non-scaling-stroke; fill: none; stroke: rgb(86, 180, 233); stroke-opacity: 1; stroke-width: 2px; opacity: 1;"/></g><g class="points"><path class="point" transform="translate(20.08,202.6)" d="M3,0A3,3 0 1,1 0,-3A3,3 0 0,1 3,0Z" style="opacity: 1; stroke-width: 0px; fill: rgb(86, 180, 233); fill-opacity: 1;"/><path class="point" transform="translate(67.84,190.19)" d="M3,0A3,3 0 1,1 0,-3A3,3 0 0,1 3,0Z" style="opacity: 1; stroke-width: 0px; fill: rgb(86, 180, 233); fill-opacity: 1;"/><path class="point" transform="translate(115.59,164.68)" d="M3,0A3,3 0 1,1 0,-3A3,3 0 0,1 3,0Z" style="opacity: 1; stroke-width: 0px; fill: rgb(86, 180, 233); fill-opacity: 1;"/><path class="point" transform="translate(163.35,146.15)" d="M3,0A3,3 0 1,1 0,-3A3,3 0 0,1 3,0Z" style="opacity: 1; stroke-width: 0px; fill: rgb(86, 180, 233); fill-opacity: 1;"/><path class="point" transform="translate(211.11,104.44)" d="M3,0A3,3 0 1,1 0,-3A3,3 0 0,1 3,0Z" style="opacity: 1; stroke-width: 0px; fill: rgb(86, 180, 233); fill-opacity: 1;"/><path class="point" transform="translate(258.86,15.34)" d="M3,0A3,3 0 1,1 0,-3A3,3 0 0,1 3,0Z" style="opacity: 1; stroke-width: 0px; fill: rgb(86, 180, 233); fill-opacity: 1;"/><path class="point" transform="translate(306.61,20.6)" d="M3,0A3,3 0 1,1 0,-3A3,3 0 0,1 3,0Z" style="opacity: 1; stroke-width: 0px; fill: rgb(86, 180, 233); fill-opacity: 1;"/></g><g class="text"/></g></g></g><g class="overplot"/><path class="xlines-above crisp" d="M0,0" style="fill: none;"/><path class="ylines-above crisp" d="M0,0" style="fill: none;"/><g class="overlines-above"/><g class="xaxislayer-above"><g class="x4tick"><text text-anchor="middle" x="0" y="560" transform="translate(473.38,0)" style="font-family: 'Open Sans', verdana, arial, sans-serif; font-size: 12px; fill: rgb(42, 63, 95); fill-opacity: 1; white-space: pre; opacity: 1;">1</text></g><g class="x4tick"><text text-anchor="middle" x="0" y="560" style="font-family: 'Open Sans', verdana, arial, sans-serif; font-size: 12px; fill: rgb(42, 63, 95); fill-opacity: 1; white-space: pre; opacity: 1;" transform="translate(521.14,0)">2</text></g><g class="x4tick"><text text-anchor="middle" x="0" y="560" style="font-family: 'Open Sans', verdana, arial, sans-serif; font-size: 12px; fill: rgb(42, 63, 95); fill-opacity: 1; white-space: pre; opacity: 1;" transform="translate(568.89,0)">3</text></g><g class="x4tick"><text text-anchor="middle" x="0" y="560" style="font-family: 'Open Sans', verdana, arial, sans-serif; font-size: 12px; fill: rgb(42, 63, 95); fill-opacity: 1; white-space: pre; opacity: 1;" transform="translate(616.65,0)">4</text></g><g class="x4tick"><text text-anchor="middle" x="0" y="560" style="font-family: 'Open Sans', verdana, arial, sans-serif; font-size: 12px; fill: rgb(42, 63, 95); fill-opacity: 1; white-space: pre; opacity: 1;" transform="translate(664.4100000000001,0)">5</text></g><g class="x4tick"><text text-anchor="middle" x="0" y="560" style="font-family: 'Open Sans', verdana, arial, sans-serif; font-size: 12px; fill: rgb(42, 63, 95); fill-opacity: 1; white-space: pre; opacity: 1;" transform="translate(712.1600000000001,0)">6</text></g><g class="x4tick"><text text-anchor="middle" x="0" y="560" style="font-family: 'Open Sans', verdana, arial, sans-serif; font-size: 12px; fill: rgb(42, 63, 95); fill-opacity: 1; white-space: pre; opacity: 1;" transform="translate(759.9100000000001,0)">7</text></g></g><g class="yaxislayer-above"><g class="y4tick"><text text-anchor="end" x="452.3" y="4.199999999999999" transform="translate(0,531.6)" style="font-family: 'Open Sans', verdana, arial, sans-serif; font-size: 12px; fill: rgb(42, 63, 95); fill-opacity: 1; white-space: pre; opacity: 1;">0.4</text></g><g class="y4tick"><text text-anchor="end" x="452.3" y="4.199999999999999" style="font-family: 'Open Sans', verdana, arial, sans-serif; font-size: 12px; fill: rgb(42, 63, 95); fill-opacity: 1; white-space: pre; opacity: 1;" transform="translate(0,486.96000000000004)">0.6</text></g><g class="y4tick"><text text-anchor="end" x="452.3" y="4.199999999999999" style="font-family: 'Open Sans', verdana, arial, sans-serif; font-size: 12px; fill: rgb(42, 63, 95); fill-opacity: 1; white-space: pre; opacity: 1;" transform="translate(0,442.32)">0.8</text></g><g class="y4tick"><text text-anchor="end" x="452.3" y="4.199999999999999" style="font-family: 'Open Sans', verdana, arial, sans-serif; font-size: 12px; fill: rgb(42, 63, 95); fill-opacity: 1; white-space: pre; opacity: 1;" transform="translate(0,397.68)">1</text></g><g class="y4tick"><text text-anchor="end" x="452.3" y="4.199999999999999" style="font-family: 'Open Sans', verdana, arial, sans-serif; font-size: 12px; fill: rgb(42, 63, 95); fill-opacity: 1; white-space: pre; opacity: 1;" transform="translate(0,353.04)">1.2</text></g></g><g class="overaxes-above"/></g></g><g class="polarlayer"/><g class="smithlayer"/><g class="ternarylayer"/><g class="geolayer"/><g class="funnelarealayer"/><g class="pielayer"/><g class="iciclelayer"/><g class="treemaplayer"/><g class="sunburstlayer"/><g class="glimages"/><defs id="topdefs-60b0f1"><g class="clips"/><clipPath id="legend60b0f1"><rect width="104" height="48" x="0" y="0"/></clipPath></defs><g class="layer-above"><g class="imagelayer"/><g class="shapelayer"/></g><g class="infolayer"><g class="legend" pointer-events="all" transform="translate(668.74,493.73)"><rect class="bg" shape-rendering="crispEdges" style="stroke: rgb(68, 68, 68); stroke-opacity: 1; fill: rgb(255, 255, 255); fill-opacity: 1; stroke-width: 0px;" width="104" height="48" x="0" y="0"/><g class="scrollbox" transform="" clip-path="url(#legend60b0f1)"><g class="groups"><g class="traces" transform="translate(0,14.5)" style="opacity: 1;"><text class="legendtext" text-anchor="start" x="40" y="4.680000000000001" style="font-family: 'Open Sans', verdana, arial, sans-serif; font-size: 12px; fill: rgb(42, 63, 95); fill-opacity: 1; white-space: pre;">Official</text><g class="layers" style="opacity: 1;"><g class="legendfill"/><g class="legendlines"><path class="js-line" d="M5,0h30" style="fill: none; stroke: rgb(230, 159, 0); stroke-opacity: 1; stroke-width: 2px;"/></g><g class="legendsymbols"><g class="legendpoints"><path class="scatterpts" transform="translate(20,0)" d="M3,0A3,3 0 1,1 0,-3A3,3 0 0,1 3,0Z" style="opacity: 1; stroke-width: 0px; fill: rgb(230, 159, 0); fill-opacity: 1;"/></g></g></g><rect class="legendtoggle" x="0" y="-9.5" width="98.046875" height="19" style="fill: rgb(0, 0, 0); fill-opacity: 0;"/></g><g class="traces" transform="translate(0,33.5)" style="opacity: 1;"><text class="legendtext" text-anchor="start" x="40" y="4.680000000000001" style="font-family: 'Open Sans', verdana, arial, sans-serif; font-size: 12px; fill: rgb(42, 63, 95); fill-opacity: 1; white-space: pre;">Automated</text><g class="layers" style="opacity: 1;"><g class="legendfill"/><g class="legendlines"><path class="js-line" d="M5,0h30" style="fill: none; stroke: rgb(86, 180, 233); stroke-opacity: 1; stroke-width: 2px;"/></g><g class="legendsymbols"><g class="legendpoints"><path class="scatterpts" transform="translate(20,0)" d="M3,0A3,3 0 1,1 0,-3A3,3 0 0,1 3,0Z" style="opacity: 1; stroke-width: 0px; fill: rgb(86, 180, 233); fill-opacity: 1;"/></g></g></g><rect class="legendtoggle" x="0" y="-9.5" width="98.046875" height="19" style="fill: rgb(0, 0, 0); fill-opacity: 0;"/></g></g></g><rect class="scrollbar" rx="20" ry="3" width="0" height="0" style="fill: rgb(128, 139, 164); fill-opacity: 1;" x="0" y="0"/></g><g class="g-gtitle"/><g class="g-xtitle"><text class="xtitle" x="217.35" y="292.690625" text-anchor="middle" style="font-family: 'Open Sans', verdana, arial, sans-serif; font-size: 14px; fill: rgb(42, 63, 95); opacity: 1; font-weight: normal; white-space: pre;">Lead day</text></g><g class="g-x2title"><text class="x2title" x="616.65" y="292.690625" text-anchor="middle" style="font-family: 'Open Sans', verdana, arial, sans-serif; font-size: 14px; fill: rgb(42, 63, 95); opacity: 1; font-weight: normal; white-space: pre;">Lead day</text></g><g class="g-x3title"><text class="x3title" x="217.35" y="587.8" text-anchor="middle" style="font-family: 'Open Sans', verdana, arial, sans-serif; font-size: 14px; fill: rgb(42, 63, 95); opacity: 1; font-weight: normal; white-space: pre;">Lead day</text></g><g class="g-x4title"><text class="x4title" x="616.65" y="587.8" text-anchor="middle" style="font-family: 'Open Sans', verdana, arial, sans-serif; font-size: 14px; fill: rgb(42, 63, 95); opacity: 1; font-weight: normal; white-space: pre;">Lead day</text></g><g class="g-ytitle" transform="translate(1.490234375,0)"><text class="ytitle" transform="rotate(-90,11.512500000000003,135.94)" x="11.512500000000003" y="135.94" text-anchor="middle" style="font-family: 'Open Sans', verdana, arial, sans-serif; font-size: 14px; fill: rgb(42, 63, 95); opacity: 1; font-weight: normal; white-space: pre;">MSE skill score</text></g><g class="g-y2title"><text class="y2title" transform="rotate(-90,404.1375,135.94)" x="404.1375" y="135.94" text-anchor="middle" style="font-family: 'Open Sans', verdana, arial, sans-serif; font-size: 14px; fill: rgb(42, 63, 95); opacity: 1; font-weight: normal; white-space: pre;">MSE skill score</text></g><g class="g-y3title" transform="translate(0.0478515625,0)"><text class="y3title" transform="rotate(-90,14.840625000000003,431.06)" x="14.840625000000003" y="431.06" text-anchor="middle" style="font-family: 'Open Sans', verdana, arial, sans-serif; font-size: 14px; fill: rgb(42, 63, 95); opacity: 1; font-weight: normal; white-space: pre;">MSE (°C​<tspan style="font-size:70%" dy="-0.6em">2</tspan><tspan dy="0.42em">​</tspan>)</text></g><g class="g-y4title"><text class="y4title" transform="rotate(-90,410.809375,431.06)" x="410.809375" y="431.06" text-anchor="middle" style="font-family: 'Open Sans', verdana, arial, sans-serif; font-size: 14px; fill: rgb(42, 63, 95); opacity: 1; font-weight: normal; white-space: pre;">Threshold weighted MSE (°C​<tspan style="font-size:70%" dy="-0.6em">2</tspan><tspan dy="0.42em">​</tspan>)</text></g><g class="annotation" data-index="0" style="opacity: 1;"><g class="annotation-text-g" transform="rotate(0,66.85,11)"><g class="cursor-pointer" transform="translate(57,2)"><rect class="bg" x="0.5" y="0.5" width="18" height="17" style="stroke-width: 1px; stroke: rgb(0, 0, 0); stroke-opacity: 0; fill: rgb(0, 0, 0); fill-opacity: 0;"/><text class="annotation-text" text-anchor="middle" x="9.34375" y="13" style="font-family: 'Open Sans', verdana, arial, sans-serif; font-size: 12px; fill: rgb(42, 63, 95); fill-opacity: 1; white-space: pre;"><tspan style="font-weight:bold">(a)</tspan></text></g></g></g><g class="annotation" data-index="1" style="opacity: 1;"><g class="annotation-text-g" transform="rotate(0,466.15,11)"><g class="cursor-pointer" transform="translate(457,2)"><rect class="bg" x="0.5" y="0.5" width="18" height="17" style="stroke-width: 1px; stroke: rgb(0, 0, 0); stroke-opacity: 0; fill: rgb(0, 0, 0); fill-opacity: 0;"/><text class="annotation-text" text-anchor="middle" x="9.671875" y="13" style="font-family: 'Open Sans', verdana, arial, sans-serif; font-size: 12px; fill: rgb(42, 63, 95); fill-opacity: 1; white-space: pre;"><tspan style="font-weight:bold">(b)</tspan></text></g></g></g><g class="annotation" data-index="2" style="opacity: 1;"><g class="annotation-text-g" transform="rotate(0,66.85,306.12)"><g class="cursor-pointer" transform="translate(57,297)"><rect class="bg" x="0.5" y="0.5" width="18" height="17" style="stroke-width: 1px; stroke: rgb(0, 0, 0); stroke-opacity: 0; fill: rgb(0, 0, 0); fill-opacity: 0;"/><text class="annotation-text" text-anchor="middle" x="9.34375" y="13" style="font-family: 'Open Sans', verdana, arial, sans-serif; font-size: 12px; fill: rgb(42, 63, 95); fill-opacity: 1; white-space: pre;"><tspan style="font-weight:bold">(c)</tspan></text></g></g></g><g class="annotation" data-index="3" style="opacity: 1;"><g class="annotation-text-g" transform="rotate(0,466.15,306.12)"><g class="cursor-pointer" transform="translate(457,297)"><rect class="bg" x="0.5" y="0.5" width="18" height="17" style="stroke-width: 1px; stroke: rgb(0, 0, 0); stroke-opacity: 0; fill: rgb(0, 0, 0); fill-opacity: 0;"/><text class="annotation-text" text-anchor="middle" x="9.671875" y="13" style="font-family: 'Open Sans', verdana, arial, sans-serif; font-size: 12px; fill: rgb(42, 63, 95); fill-opacity: 1; white-space: pre;"><tspan style="font-weight:bold">(d)</tspan></text></g></g></g></g></svg>